<?xml version="1.0" encoding="utf-8"?>
<!-- Generator: Adobe Illustrator 26.3.1, SVG Export Plug-In . SVG Version: 6.00 Build 0)  -->
<svg version="1.1" id="Layer_1" xmlns="http://www.w3.org/2000/svg" xmlns:xlink="http://www.w3.org/1999/xlink" x="0px" y="0px"
	 viewBox="0 0 723.7 225.1" style="enable-background:new 0 0 723.7 225.1;" xml:space="preserve">
<style type="text/css">
	.st0{fill:#B39164;}
</style>
<polygon id="XMLID_235_" class="st0" points="586.5,84.2 586.5,41.6 575.1,41.6 575.1,76.6 557.4,76.6 546.1,76.6 479,76.6 
	470,82.9 470,84.2 535.2,84.2 546.5,84.2 575.1,84.2 580.4,84.2 "/>
<path id="XMLID_234_" class="st0" d="M606.6,64.1c0,9.3-3.8,14.6-10.5,14.6c-2.5,0-5-0.7-7.2-2l-0.8,0.9c3.9,4.9,9.4,7.7,15,7.7
	c7.3,0,14.7-4.8,14.7-15.6V41.5h-11.3L606.6,64.1L606.6,64.1L606.6,64.1z"/>
<path id="XMLID_487_" class="st0" d="M621.2,22.5c-0.3-0.1-0.7-0.2-1.2-0.3l-0.4-0.1l0.1-0.3c0.2-0.6,0.3-1.4,0.3-2.1
	c0-5.3-2.3-7.2-4.2-7.2c-3.2,0-6.8,3-6.8,6.9c0,2.8,1.8,4.3,6.1,5.1l0.7,0.1l-0.6,0.4c-2.8,2.1-7.4,4-12,5.9l-0.9,0.4l0.9,0.2
	c1.1,0.2,3,0.4,4,0.5h0.1h0.1c1.9-0.7,7.7-2.8,10.6-6.7l0.1-0.2l0.2,0.1c0.3,0.1,0.6,0.2,0.9,0.3l0.2,0.1l2.1-2.9L621.2,22.5z
	 M618.2,20.7c0,0.3-0.1,0.7-0.2,1l-0.1,0.3l-0.3-0.1c-5.6-1.1-6.8-2.9-6.8-4.2c0-1.2,1.7-2.5,3.4-2.5
	C616.1,15.2,618.2,17.5,618.2,20.7"/>
<rect id="XMLID_231_" x="686.8" y="44.4" transform="matrix(0.7071 -0.7071 0.7071 0.7071 166.9227 505.4738)" class="st0" width="13.7" height="13.7"/>
<path id="XMLID_483_" class="st0" d="M704.3,22.5c-0.3-0.1-0.7-0.2-1.2-0.3l-0.4-0.1l0.1-0.3c0.2-0.7,0.3-1.4,0.3-2.1
	c0-5.3-2.3-7.2-4.2-7.2c-3.2,0-6.8,3-6.8,6.9c0,2.8,1.8,4.3,6.1,5.1l0.7,0.1l-0.6,0.4c-2.8,2.1-7.4,4-12,5.9l-0.9,0.4l0.9,0.2
	c1.1,0.2,3,0.4,4,0.5h0.1h0.1c1.9-0.7,7.7-2.8,10.6-6.7l0.1-0.2l0.2,0.1c0.3,0.1,0.6,0.2,0.9,0.3l0.2,0.1l2.1-2.9L704.3,22.5z
	 M701.3,20.7c0,0.3-0.1,0.7-0.2,1L701,22l-0.3-0.1c-5.6-1.1-6.8-2.9-6.8-4.2c0-1.2,1.7-2.5,3.4-2.5
	C699.2,15.2,701.3,17.5,701.3,20.7"/>
<path id="XMLID_228_" class="st0" d="M710.7,41.6v35h-63.8c0.8-2,1.2-4.3,1.2-6.9V41.6h-11.3v22.5c0,9.3-3.8,14.6-10.5,14.6
	c-2.5,0-5-0.7-7.2-1.9l-0.8,0.9c3.9,4.9,9.4,7.7,15,7.7c5,0,10-2.2,12.6-7.1l7.5,6h57.3h2.5h8.9V41.6L710.7,41.6L710.7,41.6z"/>
<path id="XMLID_227_" class="st0" d="M525.6,48.6c7.6,0,13.8,3.1,17.3,8.6c3,4.7,3.5,10.4,1.3,16.3l-0.2,0.6l0.7,0.4l0.4-0.3
	c9.1-5.6,10.8-14.1,9.6-19.9c-1.7-8.1-8.9-13.3-18.1-13.3h-38.8l19.6-20.6h-10.6l-18.4,21l1.4,7.3H525.6z"/>
<path id="XMLID_226_" class="st0" d="M205.1,126.3C204.9,126,204.8,125.9,205.1,126.3"/>
<path id="XMLID_225_" class="st0" d="M206.5,107.8C206.4,107.8,206.4,107.7,206.5,107.8c-0.1-0.1-0.1-0.1-0.2-0.2l0,0
	C207,108.4,206.7,108.1,206.5,107.8"/>
<path id="XMLID_224_" class="st0" d="M203.5,105.1C203.3,104.9,203.1,104.7,203.5,105.1"/>
<path id="XMLID_223_" class="st0" d="M205.4,106.7C205.4,106.7,205.3,106.7,205.4,106.7C205.1,106.4,204.4,105.8,205.4,106.7"/>
<path id="XMLID_448_" class="st0" d="M225.9,80.7L225.9,80.7c-0.4-3.8-3.2-7.2-5.5-9.8c-3.7-4.1-8-7.6-12.5-10.5
	c-3.3-2.1-6.7-4.1-10.1-5.9c4-1.3,8-2.6,11.9-3.9c5.1-1.7,10.2-3.3,15.3-5c0.2-0.1,0.3-0.1,0.5-0.2c0.1,0,0.2,0,0.2-0.1
	c0.2-0.1,0.1-0.3-0.1-0.7c0-0.1,0-0.1-0.1-0.1c-0.4-0.9-1.2-1.8-1.8-2.5c-1.1-1.2-2.4-2.6-3.8-3.4c-0.3-0.2-0.7-0.5-1.1-0.5h-0.1
	c-3.6-1.3-7.2-2.5-10.7-3.8c-8.7-3-17.2-6-25.9-9c-10.3-3.6-20.8-7.3-31.1-10.8c-9-3.1-18-6.3-27-9.4c-3-1-5.9-2.1-8.9-3.1
	c-1.3-0.5-2.8-1.2-4.2-1.5c-0.7-0.1-1.5,0.4-2.2,0.6c-2.3,0.8-4.5,1.6-6.8,2.3C93.8,6.3,85.7,9.2,77.6,12
	c-10.3,3.6-20.8,7.2-31.1,10.8c-9.4,3.3-18.7,6.5-28.1,9.8c-5.1,1.8-10.1,3.6-15.3,5.3c-0.2,0.1-0.5,0.2-0.7,0.3
	c-0.8,0.3,2.4,3.8,2.5,3.9c1.3,1.3,2.8,2.9,4.5,3.5c3.6,1.2,7.2,2.3,10.7,3.5c3,1,5.9,1.9,8.9,2.9c-2.2,1.1-4.4,2.2-6.6,3.3
	c-4.2,2.3-8.3,4.7-12,7.6c-2.8,2.1-5.6,4.6-7.2,7.8c-0.6,1.2-0.9,2.5-1,3.8l-0.1,0.1V88l7,2.3c-4.3,5.8-6.9,12.6-7,20.1
	c0,0.4,0.4,1.1,0.8,1.5c0.4,0.5,0.8,1.1,1.2,1.5c0.1,0.1,0.2,0.3,0.4,0.4c0.1,0.1,0.1,0.1,0.2,0.2c0.9,1,2,2.1,3.2,2.8
	c-3.5,7.5-5.2,15.6-5.7,23.9c-0.1,1.9-0.2,3.7-0.2,5.6c0,0.4,0.4,1.1,0.8,1.5c0.4,0.5,0.8,1.1,1.2,1.5c0.1,0.1,0.2,0.3,0.4,0.4
	c0.1,0.1,0.1,0.1,0.2,0.2c-1.7,8.3-2.3,16.8-2.5,25.1C2,177.3,2,179.7,2,182.1c0,0.4,0.4,1.1,0.8,1.5c0.4,0.5,0.8,1.1,1.2,1.5
	c0.1,0.1,0.2,0.3,0.4,0.4c0.1,0.1,0.1,0.1,0.2,0.2c1.2,1.3,2.7,2.8,4.4,3.4c3.6,1.2,7.2,2.3,10.7,3.5c8.7,2.8,17.2,5.6,25.9,8.4
	c10.3,3.4,20.8,6.7,31.1,10c9,2.9,18,5.8,27,8.8c3,1,5.9,1.9,8.9,2.9c1.3,0.4,2.8,1.2,4.2,1.4c0.7,0.1,1.5-0.3,2.2-0.5
	c2.2-0.7,4.5-1.5,6.7-2.2c8.2-2.6,16.3-5.3,24.5-7.9c10.3-3.4,20.8-6.7,31.1-10c9.4-3,18.6-6,28-9.1c5.1-1.7,10.2-3.3,15.3-5
	c0.2-0.1,0.5-0.2,0.7-0.2c0-0.1,0-0.2,0.1-0.3c0-11.4-0.5-23.3-3.2-34.6c0.8-0.3,1.6-0.5,2.4-0.8c0.2-0.1,0.5-0.2,0.7-0.2
	c0-0.1,0-0.2,0.1-0.3c0-11.5-2.1-23-7.8-33.1c2.3-0.7,4.7-1.5,7-2.3c0.2-0.1,0.5-0.2,0.7-0.2c0-0.1,0-0.2,0.1-0.3
	c0-9.8-4.7-18.3-10.9-25.5l11-3.6v-7.3L225.9,80.7L225.9,80.7z M195.2,99.3c1.7,1.1,3.4,2.2,5.1,3.4c0.1,0.1,0.2,0.1,0.2,0.2
	c0,0,0.4,0.3,0.5,0.3c0.4,0.3,0.7,0.6,1.1,0.8c0.4,0.3,0.9,0.7,1.3,1c0.1,0.1,0.3,0.2,0.4,0.4c-0.1-0.1-0.2-0.2-0.3-0.2
	c0.1,0.1,0.3,0.2,0.4,0.3c0.4,0.3,0.8,0.7,1.1,1c0.2,0.2,0.3,0.3,0.5,0.5c-0.1-0.1-0.1-0.1-0.2-0.1c0.3,0.3,0.6,0.6,0.9,0.9
	c0-0.1-0.1-0.1-0.1-0.2c0.1,0.1,0.2,0.2,0.3,0.3l0.1,0.1c0.1,0.1,0.3,0.3,0.4,0.4c0.3,0.3,0.6,0.7,0.9,1c-1.1-1.1,0.2,0.2,0.4,0.6
	c0.2,0.3,0.4,0.6,0.7,0.9c0.1,0.1,0.2,0.2,0.2,0.3c0.2,0.3,0.4,0.5,0.6,0.8c0.2,0.3,0.4,0.6,0.6,0.9c-4.3,1.4-8.6,2.8-12.9,4.2
	c-6.8-4.9-14.1-8.9-21.5-12.7l18-5.8C194.2,98.7,194.7,99,195.2,99.3 M208.8,110.6C208.7,110.5,208.7,110.5,208.8,110.6
	 M205.7,126.8c0.3,0.3,1.4,1.8,0.3,0.3c0.5,0.6,1,1.3,1.5,1.9c0.1,0.1,0.2,0.3,0.3,0.4c0.3,0.4,0.6,0.8,0.8,1.2
	c0.2,0.4,0.5,0.7,0.7,1.1c0.1,0.2,0.5,0.8,0,0c0.1,0.2,0.2,0.4,0.3,0.6c0.4,0.8,0.9,1.6,1.3,2.4c1.9,3.8,3.1,7.3,4.1,11.2
	c0.1,0.3,0.2,0.7,0.2,1c-0.9,0.3-1.9,0.6-2.8,0.9c-5,1.6-9.9,3.2-14.8,4.8c-14.1,4.6-28.2,9.1-42.3,13.6c-12.2,4-24.5,7.9-36.6,11.8
	c-2.6,0.8-5.3,1.6-7.8,2.5l0,0c-0.1-0.1-0.3-0.1-0.4-0.1c-1-0.3-2-0.7-3.1-1c-10.6-3.5-21.3-6.9-31.9-10.3
	c-14.4-4.7-28.9-9.4-43.4-14c-5.9-1.9-11.8-3.8-17.7-5.7c0.5-1.5,1-3,1.5-4.4c3.3-8.4,8.7-15.2,15.6-20.7c4.9,1.6,9.8,3.2,14.6,4.7
	c10.3,3.4,20.8,6.7,31.1,10c9,2.9,18,5.8,27,8.8c3,1,5.9,1.9,8.9,2.9c1.3,0.4,2.8,1.2,4.2,1.4c0.7,0.1,1.5-0.3,2.2-0.5
	c2.2-0.7,4.5-1.5,6.7-2.2c8.2-2.6,16.3-5.3,24.5-7.9c10.3-3.4,20.8-6.7,31.1-10c7.2-2.3,14.3-4.6,21.5-7c0.2,0.1,0.3,0.3,0.5,0.5
	c0.4,0.3,1.7,1.7,0.2,0.2C204.5,125.7,205.1,126.2,205.7,126.8c-0.3-0.3-0.4-0.4-0.5-0.5C205.3,126.5,205.5,126.7,205.7,126.8
	 M110.8,180.7C110.5,180.9,110.6,180.7,110.8,180.7 M68.9,64.7c2.7,0.9,5.4,1.7,8.1,2.6c-4.4,3-9,5.8-13.5,8.4c-4,2.2-8,4.2-12,6.3
	l-10.8-3.5c1.4-0.7,2.7-1.5,4.1-2.2C52.5,72.2,60.8,68.7,68.9,64.7L68.9,64.7 M171.6,106c4,2.1,8,4.2,11.8,6.3c1.9,1,3.7,2,5.5,3
	c0.8,0.5,1.7,0.9,2.5,1.4c0.4,0.2,0.8,0.5,1.2,0.7c0.2,0.1,0.4,0.2,0.6,0.4c0.1,0,0.1,0.1,0.2,0.1c0,0,0,0,0.1,0.1
	c0.1,0.1,0.2,0.1,0.3,0.2c-0.8,0.2-1.5,0.5-2.3,0.7c-14,4.5-28,9.1-42,13.5c-11.1,3.6-22.3,7.2-33.4,10.7c-1.4,0.4-2.7,0.9-4.1,1.3
	c-0.4,0.1-0.8,0.3-1.2,0.4c0,0-0.2,0-0.3-0.1c-0.3-0.2-0.7-0.2-1-0.3c-1.3-0.4-2.6-0.8-3.8-1.2c-10.9-3.5-21.8-7.1-32.7-10.5
	c-12.1-3.9-24.3-7.9-36.5-11.7c8-5.3,16.6-9.4,25-13.8l52.6,17l0,0l0,0l0,0l0,0l56.8-18.3C171.2,105.8,171.4,105.9,171.6,106
	 M89,71.2c1.4,0.5,2.9,0.9,4.3,1.4c-6.2,6.1-13.1,11.5-20.4,16.3l-8.3-2.7c0.9-0.5,1.9-1,2.8-1.5C74.8,80.8,82.1,76.2,89,71.2
	 M122.4,51.4c4.7,4.6,9.6,9,14.6,13c-3.9,1.2-7.7,2.5-11.5,3.7c-0.3-0.3-0.5-0.6-0.8-0.9c-0.4-0.5-0.8-1-1.1-1.5
	c-0.2-0.2-0.4-0.5-0.5-0.7c0-0.1-0.1-0.1-0.1-0.2c-0.6-0.9-1.2-1.7-1.8-2.6c-0.5-0.7-0.9-1.4-1.4-2.2c-1.2-2.5-2.1-5.9-2.1-10.9
	v-2.6C119.1,48.2,120.8,49.8,122.4,51.4 M114,63.7c0.8-1.2,1.6-2.4,2.3-3.6c2.2,3.1,4.5,6,7,8.9c-2.8,0.9-5.5,1.8-8.3,2.7
	c-1.4,0.5-2.9,0.8-4.3,1.4c0,0,0,0-0.1-0.1c-0.4-0.3-1.1-0.4-1.5-0.5c-0.5-0.1-0.9-0.3-1.3-0.4C110,69.3,112,66.5,114,63.7
	 M104.1,76.1L104.1,76.1C104.2,76.1,104.2,76.1,104.1,76.1c3.1,1,6,1.9,9,2.9c1.3,0.4,2.8,1.2,4.2,1.4c0.7,0.1,1.5-0.3,2.2-0.5
	c2.2-0.7,4.5-1.5,6.7-2.2c1.3-0.4,2.7-0.9,4-1.3c2.4,2.4,4.9,4.7,7.4,6.9c3.4,2.9,6.8,5.6,10.3,8.2L114,102.3l-29.2-9.5
	C91.9,87.8,98.3,82.4,104.1,76.1 M146.1,86.9c-0.5-0.3-0.9-0.6-1.4-1c-0.1-0.1-0.1-0.1-0.2-0.1c-0.1,0-0.1-0.1-0.2-0.1
	c-0.2-0.2-0.4-0.3-0.7-0.5c-0.9-0.7-1.8-1.4-2.7-2.1c-0.9-0.7-1.7-1.4-2.6-2.1c-0.2-0.1-0.7-0.6-0.8-0.7c-0.3-0.3-0.6-0.5-0.9-0.8
	c-0.8-0.7-1.5-1.3-2.2-2c-0.3-0.3-0.7-0.6-1-0.9c-0.1-0.1-0.3-0.3-0.4-0.4l0,0c-0.3-0.3-0.5-0.5-0.8-0.8c4.5-1.5,9.1-2.9,13.5-4.4
	c1.2,0.9,2.5,1.8,3.8,2.7c5.9,4.1,12,7.6,18.3,10.9l-16.8,5.5C149.4,89.2,147.7,88.1,146.1,86.9 M139.7,63.6
	c-0.7-0.5-1.4-1.1-2.1-1.6c-1.4-1.1-2.7-2.1-4.1-3.3c-0.3-0.2-0.6-0.5-0.9-0.7c-0.1-0.1-0.6-0.5-0.7-0.6c-0.5-0.4-1-0.9-1.5-1.3
	c-1.1-1-2.2-1.9-3.3-2.9c-0.5-0.5-1-0.9-1.5-1.4c-0.2-0.2-0.4-0.4-0.7-0.6l0,0l0,0c-1.6-1.6-3.3-3.2-4.8-4.8
	c-0.3-0.3-0.5-0.5-0.8-0.8c-0.1-0.1-0.2-0.2-0.3-0.4c-0.5-0.5-1-1.1-1.5-1.6c-0.1-0.1-0.1-0.1-0.2-0.2V33
	c12.1,9.1,24.6,17.8,37.6,25.6c-1.5,0.5-2.9,0.9-4.4,1.4C147.2,61.2,143.4,62.4,139.7,63.6 M99.9,65.4c-0.9,1.1-1.9,2.1-2.8,3.2
	c-1.1-0.4-2.2-0.7-3.3-1.1c2.8-2.2,5.5-4.4,8.2-6.8c1.8-1.6,3.6-3.2,5.3-4.9C105.1,59.3,102.5,62.5,99.9,65.4 M172.8,83.3
	c-3.1-1.5-6.1-3-9.1-4.6c-5-2.6-9.9-5.4-14.6-8.5c0.5-0.2,1-0.3,1.5-0.5c5.2-1.7,10.3-3.3,15.5-5c4.3,2.2,8.7,4.2,13,6.2
	c4,1.9,8.1,3.8,11.9,5.9c0.2,0.1,0.5,0.3,0.7,0.4L172.8,83.3z M159.6,57.2c-9.3-4.7-17.9-10.4-26.7-16.4c-5-3.4-9.9-6.9-14.6-10.3
	c-0.2-0.1-0.4-0.3-0.6-0.4c0,0,0,0-0.1,0l0,0l0,0v-9.6c12,6.1,24.1,12.2,36,18.5c2.4,1.3,4.8,2.7,7.3,3.9c2.3,1.1,4.7,2.1,7.1,3.1
	c3.9,1.6,7.9,3.2,11.7,4.9C172.9,52.9,166.3,55.1,159.6,57.2 M110.5,25.3c-5.5,4.1-10.9,8.1-16.6,12c-9.7,6.8-19.5,13.5-30,19
	c-0.6,0.3-1.2,0.6-1.8,0.9c-4.2-1.4-8.4-2.7-12.5-4.1c0.7-0.3,1.3-0.6,2-0.9c7.4-3.1,14.9-5.8,22.1-9.3c3-1.5,6-3.2,9-4.8
	c4.7-2.4,9.3-4.9,13.9-7.3c4.5-2.3,8.9-4.6,13.3-6.9c0.2-0.1,0.4-0.2,0.7-0.3V25.3z M97.8,46.8c4-2.7,8-5.5,11.8-8.4
	c-3.7,4.3-7.8,8.3-11.8,12.1c-5,4.7-10.3,9-15.8,13c-1.4-0.4-2.8-0.9-4.2-1.3c-0.9-0.3-1.9-0.6-2.8-0.9C82.9,57,90.5,51.9,97.8,46.8
	 M48.3,102.9c-6.6,3.4-13,6.8-19.2,10.8c-1.6,1.1-3.2,2.2-4.6,3.3c-1.3-0.4-2.6-0.9-4-1.3c4.9-6.6,11.3-11.6,18.3-15.9L48.3,102.9z
	 M20,120.8c-2.3,2.2-4.4,4.6-6.2,7.2c1-2.8,2.3-5.4,3.8-8C18.4,120.3,19.2,120.6,20,120.8 M202.1,60.9c1.9,1,3.8,2,5.7,3.1
	c0.2,0.1,0.5,0.3,0.7,0.4c0,0,0.3,0.2,0.4,0.2c0.3,0.2,0.6,0.4,0.9,0.6c0.9,0.5,1.8,1.1,2.6,1.7c0.8,0.5,1.5,1,2.2,1.5l0,0
	c0.1,0.1,0.2,0.1,0.3,0.2c0.3,0.2,0.7,0.5,1,0.8l-19.9,6.4c-3.1-2-6.4-3.9-9.7-5.7c-4.9-2.6-9.9-4.9-14.8-7.2
	c3.4-1.1,6.8-2.2,10.1-3.3c3.6-1.1,7.1-2.3,10.6-3.4C195.6,57.8,198.9,59.3,202.1,60.9 M126,10.9c8.2,2.9,16.3,5.7,24.5,8.6
	c10.3,3.6,20.7,7.2,31,10.7c9.4,3.3,18.6,6.5,28,9.8c0.6,0.2,1.2,0.4,1.7,0.6c-1.1,0.4-2.2,0.7-3.4,1.1c-7.4,2.4-14.6,4.7-22,7.1
	c-2.1-0.9-4.2-1.8-6.3-2.7c-7.8-3.3-15.7-6.3-23.4-9.8c-2.9-1.3-5.7-3-8.5-4.5c-4.6-2.4-9.3-4.8-13.8-7.2
	c-5.5-2.8-10.8-5.6-16.3-8.4V8l0,0c0,0,0,0,0.1,0.1c0.4,0.3,1.1,0.4,1.5,0.5C121.4,9.4,123.7,10.2,126,10.9 M18.8,43.3
	c-0.5-0.2-0.9-0.3-1.4-0.5c1-0.4,2.1-0.7,3.1-1.1c8.7-3,17.2-6,25.9-9c10.3-3.6,20.8-7.3,31.1-10.8c9-3.1,18-6.3,27-9.4
	c2-0.7,4-1.4,6-2.1v2.5h-0.1c-0.8,0.3-1.6,0.8-2.4,1.2c-3.6,1.9-7.3,3.7-10.8,5.6c-9.1,4.6-18.1,9.3-27.1,14
	C64,37,57.5,39.5,51.2,42.1c-5.2,2.1-10.3,4.3-15.4,6.6C30.1,46.9,24.4,45.1,18.8,43.3 M23.6,66c6.1-3.8,12.4-7,19-9.9
	c1.2,0.4,2.4,0.8,3.5,1.1c3.2,1,6.3,2,9.5,3.1c-9.4,4.5-19,8.6-27.8,13.9l-10.9-3.5C18.9,69,21.3,67.5,23.6,66 M26.6,95.8
	c-5.1,3.6-9.7,7.8-13.4,12.7c-1,1.3-1.8,2.6-2.6,4c-0.1,0-0.2-0.1-0.4-0.1c1.1-7.3,4.8-13.4,9.7-18.7L26.6,95.8z M218.4,179.2
	c0,0.4,0,0.9,0,1.3c0,0.2,0.1,1.1,0,1.3c-0.2,0.2,0.1,0,0,0.1c0,0-0.2,0-0.2,0.1c-0.3,0.2-0.8,0.2-1.1,0.3c-1.5,0.5-3,1-4.5,1.4
	c-12.7,4.1-25.5,8.3-38.2,12.3c-15.1,4.9-30.2,9.8-45.4,14.6c-4.9,1.6-9.8,3.2-14.6,4.7c-1.2,0.4-2.4,0.8-3.5,1.1
	c-0.1,0-0.2,0.1-0.2,0.1c-0.1,0-0.2-0.1-0.4-0.1c-1-0.4-2.1-0.7-3.2-1c-2-0.7-4.1-1.3-6.1-2c-6.1-2-12.1-3.9-18.2-5.9
	c-15.6-5.1-31.1-10-46.8-15.1c-8.8-2.9-17.6-5.7-26.4-8.6c0.1-9.9,0.7-20,3.1-29.7c2.4,0.8,4.9,1.6,7.3,2.4
	c8.7,2.8,17.2,5.6,25.9,8.4c10.3,3.4,20.8,6.7,31.1,10c9,2.9,18,5.8,27,8.8c3,1,5.9,1.9,8.9,2.9c1.3,0.4,2.8,1.2,4.2,1.4
	c0.7,0.1,1.5-0.3,2.2-0.5c2.2-0.7,4.5-1.5,6.7-2.2c8.2-2.6,16.3-5.3,24.5-7.9c10.3-3.4,20.8-6.7,31.1-10c9.4-3,18.6-6,28-9.1
	c2.4-0.8,4.8-1.5,7.2-2.3C218,163.8,218.3,171.5,218.4,179.2 M217,130.6c0.5,2.7,0.9,5.5,1.1,8.2c0.1,0.9,0.1,1.7,0.1,2.6
	c-3.1-6.6-7.6-12.4-12.7-17.5c1.4-0.5,2.8-0.9,4.2-1.3c1.5-0.5,3.1-1,4.6-1.5C215.5,124.2,216.4,127.3,217,130.6 M212.7,92.5
	c0.1,0.1,0.4,0.6,0.6,0.8c0.3,0.4,0.5,0.8,0.7,1.2c0.1,0.2,0.2,0.3,0.3,0.5c0.1,0.1,0.2,0.4,0.3,0.5c0.3,0.5,0.5,1,0.8,1.5
	c1.8,3.6,2.8,7.5,3,11.4c0,0.6,0.3,1.5-0.1,1.8c-0.2,0.1-0.6,0.2-0.9,0.3c-1.6,0.5-3.1,1-4.7,1.5c-4.4-5.6-9.8-10.4-15.5-14.6
	l15.3-5C212.6,92.3,212.7,92.4,212.7,92.5"/>
<polygon id="XMLID_194_" class="st0" points="586.5,84.2 586.5,41.6 575.1,41.6 575.1,76.6 557.4,76.6 546.1,76.6 479,76.6 
	470,82.9 470,84.2 535.2,84.2 546.5,84.2 575.1,84.2 580.4,84.2 "/>
<path id="XMLID_193_" class="st0" d="M606.6,64.1c0,9.3-3.8,14.6-10.5,14.6c-2.5,0-5-0.7-7.2-2l-0.8,0.9c3.9,4.9,9.4,7.7,15,7.7
	c7.3,0,14.7-4.8,14.7-15.6V41.5h-11.3L606.6,64.1L606.6,64.1L606.6,64.1z"/>
<path id="XMLID_443_" class="st0" d="M621.2,22.5c-0.3-0.1-0.7-0.2-1.2-0.3l-0.4-0.1l0.1-0.3c0.2-0.6,0.3-1.4,0.3-2.1
	c0-5.3-2.3-7.2-4.2-7.2c-3.2,0-6.8,3-6.8,6.9c0,2.8,1.8,4.3,6.1,5.1l0.7,0.1l-0.6,0.4c-2.8,2.1-7.4,4-12,5.9l-0.9,0.4l0.9,0.2
	c1.1,0.2,3,0.4,4,0.5h0.1h0.1c1.9-0.7,7.7-2.8,10.6-6.7l0.1-0.2l0.2,0.1c0.3,0.1,0.6,0.2,0.9,0.3l0.2,0.1l2.1-2.9L621.2,22.5z
	 M618.2,20.7c0,0.3-0.1,0.7-0.2,1l-0.1,0.3l-0.3-0.1c-5.6-1.1-6.8-2.9-6.8-4.2c0-1.2,1.7-2.5,3.4-2.5
	C616.1,15.2,618.2,17.5,618.2,20.7"/>
<rect id="XMLID_190_" x="321.4" y="93.9" transform="matrix(0.7071 -0.7071 0.7071 0.7071 24.8816 261.6591)" class="st0" width="13.7" height="13.7"/>
<path id="XMLID_439_" class="st0" d="M704.3,22.5c-0.3-0.1-0.7-0.2-1.2-0.3l-0.4-0.1l0.1-0.3c0.2-0.7,0.3-1.4,0.3-2.1
	c0-5.3-2.3-7.2-4.2-7.2c-3.2,0-6.8,3-6.8,6.9c0,2.8,1.8,4.3,6.1,5.1l0.7,0.1l-0.6,0.4c-2.8,2.1-7.4,4-12,5.9l-0.9,0.4l0.9,0.2
	c1.1,0.2,3,0.4,4,0.5h0.1h0.1c1.9-0.7,7.7-2.8,10.6-6.7l0.1-0.2l0.2,0.1c0.3,0.1,0.6,0.2,0.9,0.3l0.2,0.1l2.1-2.9L704.3,22.5z
	 M701.3,20.7c0,0.3-0.1,0.7-0.2,1L701,22l-0.3-0.1c-5.6-1.1-6.8-2.9-6.8-4.2c0-1.2,1.7-2.5,3.4-2.5
	C699.2,15.2,701.3,17.5,701.3,20.7"/>
<path id="XMLID_187_" class="st0" d="M710.7,41.6v35h-63.8c0.8-2,1.2-4.3,1.2-6.9V41.6h-11.3v22.5c0,9.3-3.8,14.6-10.5,14.6
	c-2.5,0-5-0.7-7.2-1.9l-0.8,0.9c3.9,4.9,9.4,7.7,15,7.7c5,0,10-2.2,12.6-7.1l7.5,6h57.3h2.5h8.9V41.6L710.7,41.6L710.7,41.6z"/>
<path id="XMLID_186_" class="st0" d="M525.6,48.6c7.6,0,13.8,3.1,17.3,8.6c3,4.7,3.5,10.4,1.3,16.3l-0.2,0.6l0.7,0.4l0.4-0.3
	c9.1-5.6,10.8-14.1,9.6-19.9c-1.7-8.1-8.9-13.3-18.1-13.3h-38.8l19.6-20.6h-10.6l-18.4,21l1.4,7.3H525.6z"/>
<path id="XMLID_185_" class="st0" d="M205.1,126.3C204.9,126,204.8,125.9,205.1,126.3"/>
<path id="XMLID_184_" class="st0" d="M206.5,107.8C206.4,107.8,206.4,107.7,206.5,107.8c-0.1-0.1-0.1-0.1-0.2-0.2l0,0
	C207,108.4,206.7,108.1,206.5,107.8"/>
<path id="XMLID_183_" class="st0" d="M203.5,105.1C203.3,104.9,203.1,104.7,203.5,105.1"/>
<path id="XMLID_182_" class="st0" d="M205.4,106.7C205.4,106.7,205.3,106.7,205.4,106.7C205.1,106.4,204.4,105.8,205.4,106.7"/>
<path id="XMLID_404_" class="st0" d="M225.9,80.7L225.9,80.7c-0.4-3.8-3.2-7.2-5.5-9.8c-3.7-4.1-8-7.6-12.5-10.5
	c-3.3-2.1-6.7-4.1-10.1-5.9c4-1.3,8-2.6,11.9-3.9c5.1-1.7,10.2-3.3,15.3-5c0.2-0.1,0.3-0.1,0.5-0.2c0.1,0,0.2,0,0.2-0.1
	c0.2-0.1,0.1-0.3-0.1-0.7c0-0.1,0-0.1-0.1-0.1c-0.4-0.9-1.2-1.8-1.8-2.5c-1.1-1.2-2.4-2.6-3.8-3.4c-0.3-0.2-0.7-0.5-1.1-0.5h-0.1
	c-3.6-1.3-7.2-2.5-10.7-3.8c-8.7-3-17.2-6-25.9-9c-10.3-3.6-20.8-7.3-31.1-10.8c-9-3.1-18-6.3-27-9.4c-3-1-5.9-2.1-8.9-3.1
	c-1.3-0.5-2.8-1.2-4.2-1.5c-0.7-0.1-1.5,0.4-2.2,0.6c-2.3,0.8-4.5,1.6-6.8,2.3C93.8,6.3,85.7,9.2,77.6,12
	c-10.3,3.6-20.8,7.2-31.1,10.8c-9.4,3.3-18.7,6.5-28.1,9.8c-5.1,1.8-10.1,3.6-15.3,5.3c-0.2,0.1-0.5,0.2-0.7,0.3
	c-0.8,0.3,2.4,3.8,2.5,3.9c1.3,1.3,2.8,2.9,4.5,3.5c3.6,1.2,7.2,2.3,10.7,3.5c3,1,5.9,1.9,8.9,2.9c-2.2,1.1-4.4,2.2-6.6,3.3
	c-4.2,2.3-8.3,4.7-12,7.6c-2.8,2.1-5.6,4.6-7.2,7.8c-0.6,1.2-0.9,2.5-1,3.8l-0.1,0.1V88l7,2.3c-4.3,5.8-6.9,12.6-7,20.1
	c0,0.4,0.4,1.1,0.8,1.5c0.4,0.5,0.8,1.1,1.2,1.5c0.1,0.1,0.2,0.3,0.4,0.4c0.1,0.1,0.1,0.1,0.2,0.2c0.9,1,2,2.1,3.2,2.8
	c-3.5,7.5-5.2,15.6-5.7,23.9c-0.1,1.9-0.2,3.7-0.2,5.6c0,0.4,0.4,1.1,0.8,1.5c0.4,0.5,0.8,1.1,1.2,1.5c0.1,0.1,0.2,0.3,0.4,0.4
	c0.1,0.1,0.1,0.1,0.2,0.2c-1.7,8.3-2.3,16.8-2.5,25.1C2,177.3,2,179.7,2,182.1c0,0.4,0.4,1.1,0.8,1.5c0.4,0.5,0.8,1.1,1.2,1.5
	c0.1,0.1,0.2,0.3,0.4,0.4c0.1,0.1,0.1,0.1,0.2,0.2c1.2,1.3,2.7,2.8,4.4,3.4c3.6,1.2,7.2,2.3,10.7,3.5c8.7,2.8,17.2,5.6,25.9,8.4
	c10.3,3.4,20.8,6.7,31.1,10c9,2.9,18,5.8,27,8.8c3,1,5.9,1.9,8.9,2.9c1.3,0.4,2.8,1.2,4.2,1.4c0.7,0.1,1.5-0.3,2.2-0.5
	c2.2-0.7,4.5-1.5,6.7-2.2c8.2-2.6,16.3-5.3,24.5-7.9c10.3-3.4,20.8-6.7,31.1-10c9.4-3,18.6-6,28-9.1c5.1-1.7,10.2-3.3,15.3-5
	c0.2-0.1,0.5-0.2,0.7-0.2c0-0.1,0-0.2,0.1-0.3c0-11.4-0.5-23.3-3.2-34.6c0.8-0.3,1.6-0.5,2.4-0.8c0.2-0.1,0.5-0.2,0.7-0.2
	c0-0.1,0-0.2,0.1-0.3c0-11.5-2.1-23-7.8-33.1c2.3-0.7,4.7-1.5,7-2.3c0.2-0.1,0.5-0.2,0.7-0.2c0-0.1,0-0.2,0.1-0.3
	c0-9.8-4.7-18.3-10.9-25.5l11-3.6v-7.3L225.9,80.7L225.9,80.7z M195.2,99.3c1.7,1.1,3.4,2.2,5.1,3.4c0.1,0.1,0.2,0.1,0.2,0.2
	c0,0,0.4,0.3,0.5,0.3c0.4,0.3,0.7,0.6,1.1,0.8c0.4,0.3,0.9,0.7,1.3,1c0.1,0.1,0.3,0.2,0.4,0.4c-0.1-0.1-0.2-0.2-0.3-0.2
	c0.1,0.1,0.3,0.2,0.4,0.3c0.4,0.3,0.8,0.7,1.1,1c0.2,0.2,0.3,0.3,0.5,0.5c-0.1-0.1-0.1-0.1-0.2-0.1c0.3,0.3,0.6,0.6,0.9,0.9
	c0-0.1-0.1-0.1-0.1-0.2c0.1,0.1,0.2,0.2,0.3,0.3l0.1,0.1c0.1,0.1,0.3,0.3,0.4,0.4c0.3,0.3,0.6,0.7,0.9,1c-1.1-1.1,0.2,0.2,0.4,0.6
	c0.2,0.3,0.4,0.6,0.7,0.9c0.1,0.1,0.2,0.2,0.2,0.3c0.2,0.3,0.4,0.5,0.6,0.8c0.2,0.3,0.4,0.6,0.6,0.9c-4.3,1.4-8.6,2.8-12.9,4.2
	c-6.8-4.9-14.1-8.9-21.5-12.7l18-5.8C194.2,98.7,194.7,99,195.2,99.3 M208.8,110.6C208.7,110.5,208.7,110.5,208.8,110.6
	 M205.7,126.8c0.3,0.3,1.4,1.8,0.3,0.3c0.5,0.6,1,1.3,1.5,1.9c0.1,0.1,0.2,0.3,0.3,0.4c0.3,0.4,0.6,0.8,0.8,1.2
	c0.2,0.4,0.5,0.7,0.7,1.1c0.1,0.2,0.5,0.8,0,0c0.1,0.2,0.2,0.4,0.3,0.6c0.4,0.8,0.9,1.6,1.3,2.4c1.9,3.8,3.1,7.3,4.1,11.2
	c0.1,0.3,0.2,0.7,0.2,1c-0.9,0.3-1.9,0.6-2.8,0.9c-5,1.6-9.9,3.2-14.8,4.8c-14.1,4.6-28.2,9.1-42.3,13.6c-12.2,4-24.5,7.9-36.6,11.8
	c-2.6,0.8-5.3,1.6-7.8,2.5l0,0c-0.1-0.1-0.3-0.1-0.4-0.1c-1-0.3-2-0.7-3.1-1c-10.6-3.5-21.3-6.9-31.9-10.3
	c-14.4-4.7-28.9-9.4-43.4-14c-5.9-1.9-11.8-3.8-17.7-5.7c0.5-1.5,1-3,1.5-4.4c3.3-8.4,8.7-15.2,15.6-20.7c4.9,1.6,9.8,3.2,14.6,4.7
	c10.3,3.4,20.8,6.7,31.1,10c9,2.9,18,5.8,27,8.8c3,1,5.9,1.9,8.9,2.9c1.3,0.4,2.8,1.2,4.2,1.4c0.7,0.1,1.5-0.3,2.2-0.5
	c2.2-0.7,4.5-1.5,6.7-2.2c8.2-2.6,16.3-5.3,24.5-7.9c10.3-3.4,20.8-6.7,31.1-10c7.2-2.3,14.3-4.6,21.5-7c0.2,0.1,0.3,0.3,0.5,0.5
	c0.4,0.3,1.7,1.7,0.2,0.2C204.5,125.7,205.1,126.2,205.7,126.8c-0.3-0.3-0.4-0.4-0.5-0.5C205.3,126.5,205.5,126.7,205.7,126.8
	 M110.8,180.7C110.5,180.9,110.6,180.7,110.8,180.7 M68.9,64.7c2.7,0.9,5.4,1.7,8.1,2.6c-4.4,3-9,5.8-13.5,8.4c-4,2.2-8,4.2-12,6.3
	l-10.8-3.5c1.4-0.7,2.7-1.5,4.1-2.2C52.5,72.2,60.8,68.7,68.9,64.7L68.9,64.7 M171.6,106c4,2.1,8,4.2,11.8,6.3c1.9,1,3.7,2,5.5,3
	c0.8,0.5,1.7,0.9,2.5,1.4c0.4,0.2,0.8,0.5,1.2,0.7c0.2,0.1,0.4,0.2,0.6,0.4c0.1,0,0.1,0.1,0.2,0.1c0,0,0,0,0.1,0.1
	c0.1,0.1,0.2,0.1,0.3,0.2c-0.8,0.2-1.5,0.5-2.3,0.7c-14,4.5-28,9.1-42,13.5c-11.1,3.6-22.3,7.2-33.4,10.7c-1.4,0.4-2.7,0.9-4.1,1.3
	c-0.4,0.1-0.8,0.3-1.2,0.4c0,0-0.2,0-0.3-0.1c-0.3-0.2-0.7-0.2-1-0.3c-1.3-0.4-2.6-0.8-3.8-1.2c-10.9-3.5-21.8-7.1-32.7-10.5
	c-12.1-3.9-24.3-7.9-36.5-11.7c8-5.3,16.6-9.4,25-13.8l52.6,17l0,0l0,0l0,0l0,0l56.8-18.3C171.2,105.8,171.4,105.9,171.6,106
	 M89,71.2c1.4,0.5,2.9,0.9,4.3,1.4c-6.2,6.1-13.1,11.5-20.4,16.3l-8.3-2.7c0.9-0.5,1.9-1,2.8-1.5C74.8,80.8,82.1,76.2,89,71.2
	 M122.4,51.4c4.7,4.6,9.6,9,14.6,13c-3.9,1.2-7.7,2.5-11.5,3.7c-0.3-0.3-0.5-0.6-0.8-0.9c-0.4-0.5-0.8-1-1.1-1.5
	c-0.2-0.2-0.4-0.5-0.5-0.7c0-0.1-0.1-0.1-0.1-0.2c-0.6-0.9-1.2-1.7-1.8-2.6c-0.5-0.7-0.9-1.4-1.4-2.2c-1.2-2.5-2.1-5.9-2.1-10.9
	v-2.6C119.1,48.2,120.8,49.8,122.4,51.4 M114,63.7c0.8-1.2,1.6-2.4,2.3-3.6c2.2,3.1,4.5,6,7,8.9c-2.8,0.9-5.5,1.8-8.3,2.7
	c-1.4,0.5-2.9,0.8-4.3,1.4c0,0,0,0-0.1-0.1c-0.4-0.3-1.1-0.4-1.5-0.5c-0.5-0.1-0.9-0.3-1.3-0.4C110,69.3,112,66.5,114,63.7
	 M104.1,76.1L104.1,76.1C104.2,76.1,104.2,76.1,104.1,76.1c3.1,1,6,1.9,9,2.9c1.3,0.4,2.8,1.2,4.2,1.4c0.7,0.1,1.5-0.3,2.2-0.5
	c2.2-0.7,4.5-1.5,6.7-2.2c1.3-0.4,2.7-0.9,4-1.3c2.4,2.4,4.9,4.7,7.4,6.9c3.4,2.9,6.8,5.6,10.3,8.2L114,102.3l-29.2-9.5
	C91.9,87.8,98.3,82.4,104.1,76.1 M146.1,86.9c-0.5-0.3-0.9-0.6-1.4-1c-0.1-0.1-0.1-0.1-0.2-0.1c-0.1,0-0.1-0.1-0.2-0.1
	c-0.2-0.2-0.4-0.3-0.7-0.5c-0.9-0.7-1.8-1.4-2.7-2.1c-0.9-0.7-1.7-1.4-2.6-2.1c-0.2-0.1-0.7-0.6-0.8-0.7c-0.3-0.3-0.6-0.5-0.9-0.8
	c-0.8-0.7-1.5-1.3-2.2-2c-0.3-0.3-0.7-0.6-1-0.9c-0.1-0.1-0.3-0.3-0.4-0.4l0,0c-0.3-0.3-0.5-0.5-0.8-0.8c4.5-1.5,9.1-2.9,13.5-4.4
	c1.2,0.9,2.5,1.8,3.8,2.7c5.9,4.1,12,7.6,18.3,10.9l-16.8,5.5C149.4,89.2,147.7,88.1,146.1,86.9 M139.7,63.6
	c-0.7-0.5-1.4-1.1-2.1-1.6c-1.4-1.1-2.7-2.1-4.1-3.3c-0.3-0.2-0.6-0.5-0.9-0.7c-0.1-0.1-0.6-0.5-0.7-0.6c-0.5-0.4-1-0.9-1.5-1.3
	c-1.1-1-2.2-1.9-3.3-2.9c-0.5-0.5-1-0.9-1.5-1.4c-0.2-0.2-0.4-0.4-0.7-0.6l0,0l0,0c-1.6-1.6-3.3-3.2-4.8-4.8
	c-0.3-0.3-0.5-0.5-0.8-0.8c-0.1-0.1-0.2-0.2-0.3-0.4c-0.5-0.5-1-1.1-1.5-1.6c-0.1-0.1-0.1-0.1-0.2-0.2V33
	c12.1,9.1,24.6,17.8,37.6,25.6c-1.5,0.5-2.9,0.9-4.4,1.4C147.2,61.2,143.4,62.4,139.7,63.6 M99.9,65.4c-0.9,1.1-1.9,2.1-2.8,3.2
	c-1.1-0.4-2.2-0.7-3.3-1.1c2.8-2.2,5.5-4.4,8.2-6.8c1.8-1.6,3.6-3.2,5.3-4.9C105.1,59.3,102.5,62.5,99.9,65.4 M172.8,83.3
	c-3.1-1.5-6.1-3-9.1-4.6c-5-2.6-9.9-5.4-14.6-8.5c0.5-0.2,1-0.3,1.5-0.5c5.2-1.7,10.3-3.3,15.5-5c4.3,2.2,8.7,4.2,13,6.2
	c4,1.9,8.1,3.8,11.9,5.9c0.2,0.1,0.5,0.3,0.7,0.4L172.8,83.3z M159.6,57.2c-9.3-4.7-17.9-10.4-26.7-16.4c-5-3.4-9.9-6.9-14.6-10.3
	c-0.2-0.1-0.4-0.3-0.6-0.4c0,0,0,0-0.1,0l0,0l0,0v-9.6c12,6.1,24.1,12.2,36,18.5c2.4,1.3,4.8,2.7,7.3,3.9c2.3,1.1,4.7,2.1,7.1,3.1
	c3.9,1.6,7.9,3.2,11.7,4.9C172.9,52.9,166.3,55.1,159.6,57.2 M110.5,25.3c-5.5,4.1-10.9,8.1-16.6,12c-9.7,6.8-19.5,13.5-30,19
	c-0.6,0.3-1.2,0.6-1.8,0.9c-4.2-1.4-8.4-2.7-12.5-4.1c0.7-0.3,1.3-0.6,2-0.9c7.4-3.1,14.9-5.8,22.1-9.3c3-1.5,6-3.2,9-4.8
	c4.7-2.4,9.3-4.9,13.9-7.3c4.5-2.3,8.9-4.6,13.3-6.9c0.2-0.1,0.4-0.2,0.7-0.3V25.3z M97.8,46.8c4-2.7,8-5.5,11.8-8.4
	c-3.7,4.3-7.8,8.3-11.8,12.1c-5,4.7-10.3,9-15.8,13c-1.4-0.4-2.8-0.9-4.2-1.3c-0.9-0.3-1.9-0.6-2.8-0.9C82.9,57,90.5,51.9,97.8,46.8
	 M48.3,102.9c-6.6,3.4-13,6.8-19.2,10.8c-1.6,1.1-3.2,2.2-4.6,3.3c-1.3-0.4-2.6-0.9-4-1.3c4.9-6.6,11.3-11.6,18.3-15.9L48.3,102.9z
	 M20,120.8c-2.3,2.2-4.4,4.6-6.2,7.2c1-2.8,2.3-5.4,3.8-8C18.4,120.3,19.2,120.6,20,120.8 M202.1,60.9c1.9,1,3.8,2,5.7,3.1
	c0.2,0.1,0.5,0.3,0.7,0.4c0,0,0.3,0.2,0.4,0.2c0.3,0.2,0.6,0.4,0.9,0.6c0.9,0.5,1.8,1.1,2.6,1.7c0.8,0.5,1.5,1,2.2,1.5l0,0
	c0.1,0.1,0.2,0.1,0.3,0.2c0.3,0.2,0.7,0.5,1,0.8l-19.9,6.4c-3.1-2-6.4-3.9-9.7-5.7c-4.9-2.6-9.9-4.9-14.8-7.2
	c3.4-1.1,6.8-2.2,10.1-3.3c3.6-1.1,7.1-2.3,10.6-3.4C195.6,57.8,198.9,59.3,202.1,60.9 M126,10.9c8.2,2.9,16.3,5.7,24.5,8.6
	c10.3,3.6,20.7,7.2,31,10.7c9.4,3.3,18.6,6.5,28,9.8c0.6,0.2,1.2,0.4,1.7,0.6c-1.1,0.4-2.2,0.7-3.4,1.1c-7.4,2.4-14.6,4.7-22,7.1
	c-2.1-0.9-4.2-1.8-6.3-2.7c-7.8-3.3-15.7-6.3-23.4-9.8c-2.9-1.3-5.7-3-8.5-4.5c-4.6-2.4-9.3-4.8-13.8-7.2
	c-5.5-2.8-10.8-5.6-16.3-8.4V8l0,0c0,0,0,0,0.1,0.1c0.4,0.3,1.1,0.4,1.5,0.5C121.4,9.4,123.7,10.2,126,10.9 M18.8,43.3
	c-0.5-0.2-0.9-0.3-1.4-0.5c1-0.4,2.1-0.7,3.1-1.1c8.7-3,17.2-6,25.9-9c10.3-3.6,20.8-7.3,31.1-10.8c9-3.1,18-6.3,27-9.4
	c2-0.7,4-1.4,6-2.1v2.5h-0.1c-0.8,0.3-1.6,0.8-2.4,1.2c-3.6,1.9-7.3,3.7-10.8,5.6c-9.1,4.6-18.1,9.3-27.1,14
	C64,37,57.5,39.5,51.2,42.1c-5.2,2.1-10.3,4.3-15.4,6.6C30.1,46.9,24.4,45.1,18.8,43.3 M23.6,66c6.1-3.8,12.4-7,19-9.9
	c1.2,0.4,2.4,0.8,3.5,1.1c3.2,1,6.3,2,9.5,3.1c-9.4,4.5-19,8.6-27.8,13.9l-10.9-3.5C18.9,69,21.3,67.5,23.6,66 M26.6,95.8
	c-5.1,3.6-9.7,7.8-13.4,12.7c-1,1.3-1.8,2.6-2.6,4c-0.1,0-0.2-0.1-0.4-0.1c1.1-7.3,4.8-13.4,9.7-18.7L26.6,95.8z M218.4,179.2
	c0,0.4,0,0.9,0,1.3c0,0.2,0.1,1.1,0,1.3c-0.2,0.2,0.1,0,0,0.1c0,0-0.2,0-0.2,0.1c-0.3,0.2-0.8,0.2-1.1,0.3c-1.5,0.5-3,1-4.5,1.4
	c-12.7,4.1-25.5,8.3-38.2,12.3c-15.1,4.9-30.2,9.8-45.4,14.6c-4.9,1.6-9.8,3.2-14.6,4.7c-1.2,0.4-2.4,0.8-3.5,1.1
	c-0.1,0-0.2,0.1-0.2,0.1c-0.1,0-0.2-0.1-0.4-0.1c-1-0.4-2.1-0.7-3.2-1c-2-0.7-4.1-1.3-6.1-2c-6.1-2-12.1-3.9-18.2-5.9
	c-15.6-5.1-31.1-10-46.8-15.1c-8.8-2.9-17.6-5.7-26.4-8.6c0.1-9.9,0.7-20,3.1-29.7c2.4,0.8,4.9,1.6,7.3,2.4
	c8.7,2.8,17.2,5.6,25.9,8.4c10.3,3.4,20.8,6.7,31.1,10c9,2.9,18,5.8,27,8.8c3,1,5.9,1.9,8.9,2.9c1.3,0.4,2.8,1.2,4.2,1.4
	c0.7,0.1,1.5-0.3,2.2-0.5c2.2-0.7,4.5-1.5,6.7-2.2c8.2-2.6,16.3-5.3,24.5-7.9c10.3-3.4,20.8-6.7,31.1-10c9.4-3,18.6-6,28-9.1
	c2.4-0.8,4.8-1.5,7.2-2.3C218,163.8,218.3,171.5,218.4,179.2 M217,130.6c0.5,2.7,0.9,5.5,1.1,8.2c0.1,0.9,0.1,1.7,0.1,2.6
	c-3.1-6.6-7.6-12.4-12.7-17.5c1.4-0.5,2.8-0.9,4.2-1.3c1.5-0.5,3.1-1,4.6-1.5C215.5,124.2,216.4,127.3,217,130.6 M212.7,92.5
	c0.1,0.1,0.4,0.6,0.6,0.8c0.3,0.4,0.5,0.8,0.7,1.2c0.1,0.2,0.2,0.3,0.3,0.5c0.1,0.1,0.2,0.4,0.3,0.5c0.3,0.5,0.5,1,0.8,1.5
	c1.8,3.6,2.8,7.5,3,11.4c0,0.6,0.3,1.5-0.1,1.8c-0.2,0.1-0.6,0.2-0.9,0.3c-1.6,0.5-3.1,1-4.7,1.5c-4.4-5.6-9.8-10.4-15.5-14.6
	l15.3-5C212.6,92.3,212.7,92.4,212.7,92.5"/>
<polyline id="XMLID_153_" class="st0" points="438.3,76.4 427,76.4 368.8,76.4 376.2,84 376.2,84 416.1,84 427.5,84 "/>
<path id="XMLID_152_" class="st0" d="M385.1,40.8l3.9,7.7h33.6c7.6,0,13.8,3.1,17.3,8.6c3,4.7,3.5,10.4,1.3,16.3l-0.2,0.6l0.7,0.4
	l0.4-0.3c9.1-5.6,10.8-14.1,9.6-19.9c-1.7-8.1-8.9-13.3-18.1-13.3h-38.8"/>
<path id="XMLID_151_" class="st0" d="M205.1,126.3C204.9,126,204.8,125.9,205.1,126.3"/>
<path id="XMLID_150_" class="st0" d="M206.5,107.8C206.4,107.8,206.4,107.7,206.5,107.8c-0.1-0.1-0.1-0.1-0.2-0.2l0,0
	C207,108.4,206.7,108.1,206.5,107.8"/>
<path id="XMLID_149_" class="st0" d="M203.5,105.1C203.3,104.9,203.1,104.7,203.5,105.1"/>
<path id="XMLID_148_" class="st0" d="M205.4,106.7C205.4,106.7,205.3,106.7,205.4,106.7C205.1,106.4,204.4,105.8,205.4,106.7"/>
<path id="XMLID_369_" class="st0" d="M225.9,80.7L225.9,80.7c-0.4-3.8-3.2-7.2-5.5-9.8c-3.7-4.1-8-7.6-12.5-10.5
	c-3.3-2.1-6.7-4.1-10.1-5.9c4-1.3,8-2.6,11.9-3.9c5.1-1.7,10.2-3.3,15.3-5c0.2-0.1,0.3-0.1,0.5-0.2c0.1,0,0.2,0,0.2-0.1
	c0.2-0.1,0.1-0.3-0.1-0.7c0-0.1,0-0.1-0.1-0.1c-0.4-0.9-1.2-1.8-1.8-2.5c-1.1-1.2-2.4-2.6-3.8-3.4c-0.3-0.2-0.7-0.5-1.1-0.5h-0.1
	c-3.6-1.3-7.2-2.5-10.7-3.8c-8.7-3-17.2-6-25.9-9c-10.3-3.6-20.8-7.3-31.1-10.8c-9-3.1-18-6.3-27-9.4c-3-1-5.9-2.1-8.9-3.1
	c-1.3-0.5-2.8-1.2-4.2-1.5c-0.7-0.1-1.5,0.4-2.2,0.6c-2.3,0.8-4.5,1.6-6.8,2.3C93.8,6.3,85.7,9.2,77.6,12
	c-10.3,3.6-20.8,7.2-31.1,10.8c-9.4,3.3-18.7,6.5-28.1,9.8c-5.1,1.8-10.1,3.6-15.3,5.3c-0.2,0.1-0.5,0.2-0.7,0.3
	c-0.8,0.3,2.4,3.8,2.5,3.9c1.3,1.3,2.8,2.9,4.5,3.5c3.6,1.2,7.2,2.3,10.7,3.5c3,1,5.9,1.9,8.9,2.9c-2.2,1.1-4.4,2.2-6.6,3.3
	c-4.2,2.3-8.3,4.7-12,7.6c-2.8,2.1-5.6,4.6-7.2,7.8c-0.6,1.2-0.9,2.5-1,3.8l-0.1,0.1V88l7,2.3c-4.3,5.8-6.9,12.6-7,20.1
	c0,0.4,0.4,1.1,0.8,1.5c0.4,0.5,0.8,1.1,1.2,1.5c0.1,0.1,0.2,0.3,0.4,0.4c0.1,0.1,0.1,0.1,0.2,0.2c0.9,1,2,2.1,3.2,2.8
	c-3.5,7.5-5.2,15.6-5.7,23.9c-0.1,1.9-0.2,3.7-0.2,5.6c0,0.4,0.4,1.1,0.8,1.5c0.4,0.5,0.8,1.1,1.2,1.5c0.1,0.1,0.2,0.3,0.4,0.4
	c0.1,0.1,0.1,0.1,0.2,0.2c-1.7,8.3-2.3,16.8-2.5,25.1C2,177.3,2,179.7,2,182.1c0,0.4,0.4,1.1,0.8,1.5c0.4,0.5,0.8,1.1,1.2,1.5
	c0.1,0.1,0.2,0.3,0.4,0.4c0.1,0.1,0.1,0.1,0.2,0.2c1.2,1.3,2.7,2.8,4.4,3.4c3.6,1.2,7.2,2.3,10.7,3.5c8.7,2.8,17.2,5.6,25.9,8.4
	c10.3,3.4,20.8,6.7,31.1,10c9,2.9,18,5.8,27,8.8c3,1,5.9,1.9,8.9,2.9c1.3,0.4,2.8,1.2,4.2,1.4c0.7,0.1,1.5-0.3,2.2-0.5
	c2.2-0.7,4.5-1.5,6.7-2.2c8.2-2.6,16.3-5.3,24.5-7.9c10.3-3.4,20.8-6.7,31.1-10c9.4-3,18.6-6,28-9.1c5.1-1.7,10.2-3.3,15.3-5
	c0.2-0.1,0.5-0.2,0.7-0.2c0-0.1,0-0.2,0.1-0.3c0-11.4-0.5-23.3-3.2-34.6c0.8-0.3,1.6-0.5,2.4-0.8c0.2-0.1,0.5-0.2,0.7-0.2
	c0-0.1,0-0.2,0.1-0.3c0-11.5-2.1-23-7.8-33.1c2.3-0.7,4.7-1.5,7-2.3c0.2-0.1,0.5-0.2,0.7-0.2c0-0.1,0-0.2,0.1-0.3
	c0-9.8-4.7-18.3-10.9-25.5l11-3.6v-7.3L225.9,80.7L225.9,80.7z M195.2,99.3c1.7,1.1,3.4,2.2,5.1,3.4c0.1,0.1,0.2,0.1,0.2,0.2
	c0,0,0.4,0.3,0.5,0.3c0.4,0.3,0.7,0.6,1.1,0.8c0.4,0.3,0.9,0.7,1.3,1c0.1,0.1,0.3,0.2,0.4,0.4c-0.1-0.1-0.2-0.2-0.3-0.2
	c0.1,0.1,0.3,0.2,0.4,0.3c0.4,0.3,0.8,0.7,1.1,1c0.2,0.2,0.3,0.3,0.5,0.5c-0.1-0.1-0.1-0.1-0.2-0.1c0.3,0.3,0.6,0.6,0.9,0.9
	c0-0.1-0.1-0.1-0.1-0.2c0.1,0.1,0.2,0.2,0.3,0.3l0.1,0.1c0.1,0.1,0.3,0.3,0.4,0.4c0.3,0.3,0.6,0.7,0.9,1c-1.1-1.1,0.2,0.2,0.4,0.6
	c0.2,0.3,0.4,0.6,0.7,0.9c0.1,0.1,0.2,0.2,0.2,0.3c0.2,0.3,0.4,0.5,0.6,0.8c0.2,0.3,0.4,0.6,0.6,0.9c-4.3,1.4-8.6,2.8-12.9,4.2
	c-6.8-4.9-14.1-8.9-21.5-12.7l18-5.8C194.2,98.7,194.7,99,195.2,99.3 M208.8,110.6C208.7,110.5,208.7,110.5,208.8,110.6
	 M205.7,126.8c0.3,0.3,1.4,1.8,0.3,0.3c0.5,0.6,1,1.3,1.5,1.9c0.1,0.1,0.2,0.3,0.3,0.4c0.3,0.4,0.6,0.8,0.8,1.2
	c0.2,0.4,0.5,0.7,0.7,1.1c0.1,0.2,0.5,0.8,0,0c0.1,0.2,0.2,0.4,0.3,0.6c0.4,0.8,0.9,1.6,1.3,2.4c1.9,3.8,3.1,7.3,4.1,11.2
	c0.1,0.3,0.2,0.7,0.2,1c-0.9,0.3-1.9,0.6-2.8,0.9c-5,1.6-9.9,3.2-14.8,4.8c-14.1,4.6-28.2,9.1-42.3,13.6c-12.2,4-24.5,7.9-36.6,11.8
	c-2.6,0.8-5.3,1.6-7.8,2.5l0,0c-0.1-0.1-0.3-0.1-0.4-0.1c-1-0.3-2-0.7-3.1-1c-10.6-3.5-21.3-6.9-31.9-10.3
	c-14.4-4.7-28.9-9.4-43.4-14c-5.9-1.9-11.8-3.8-17.7-5.7c0.5-1.5,1-3,1.5-4.4c3.3-8.4,8.7-15.2,15.6-20.7c4.9,1.6,9.8,3.2,14.6,4.7
	c10.3,3.4,20.8,6.7,31.1,10c9,2.9,18,5.8,27,8.8c3,1,5.9,1.9,8.9,2.9c1.3,0.4,2.8,1.2,4.2,1.4c0.7,0.1,1.5-0.3,2.2-0.5
	c2.2-0.7,4.5-1.5,6.7-2.2c8.2-2.6,16.3-5.3,24.5-7.9c10.3-3.4,20.8-6.7,31.1-10c7.2-2.3,14.3-4.6,21.5-7c0.2,0.1,0.3,0.3,0.5,0.5
	c0.4,0.3,1.7,1.7,0.2,0.2C204.5,125.7,205.1,126.2,205.7,126.8c-0.3-0.3-0.4-0.4-0.5-0.5C205.3,126.5,205.5,126.7,205.7,126.8
	 M110.8,180.7C110.5,180.9,110.6,180.7,110.8,180.7 M68.9,64.7c2.7,0.9,5.4,1.7,8.1,2.6c-4.4,3-9,5.8-13.5,8.4c-4,2.2-8,4.2-12,6.3
	l-10.8-3.5c1.4-0.7,2.7-1.5,4.1-2.2C52.5,72.2,60.8,68.7,68.9,64.7L68.9,64.7 M171.6,106c4,2.1,8,4.2,11.8,6.3c1.9,1,3.7,2,5.5,3
	c0.8,0.5,1.7,0.9,2.5,1.4c0.4,0.2,0.8,0.5,1.2,0.7c0.2,0.1,0.4,0.2,0.6,0.4c0.1,0,0.1,0.1,0.2,0.1c0,0,0,0,0.1,0.1
	c0.1,0.1,0.2,0.1,0.3,0.2c-0.8,0.2-1.5,0.5-2.3,0.7c-14,4.5-28,9.1-42,13.5c-11.1,3.6-22.3,7.2-33.4,10.7c-1.4,0.4-2.7,0.9-4.1,1.3
	c-0.4,0.1-0.8,0.3-1.2,0.4c0,0-0.2,0-0.3-0.1c-0.3-0.2-0.7-0.2-1-0.3c-1.3-0.4-2.6-0.8-3.8-1.2c-10.9-3.5-21.8-7.1-32.7-10.5
	c-12.1-3.9-24.3-7.9-36.5-11.7c8-5.3,16.6-9.4,25-13.8l52.6,17l0,0l0,0l0,0l0,0l56.8-18.3C171.2,105.8,171.4,105.9,171.6,106
	 M89,71.2c1.4,0.5,2.9,0.9,4.3,1.4c-6.2,6.1-13.1,11.5-20.4,16.3l-8.3-2.7c0.9-0.5,1.9-1,2.8-1.5C74.8,80.8,82.1,76.2,89,71.2
	 M122.4,51.4c4.7,4.6,9.6,9,14.6,13c-3.9,1.2-7.7,2.5-11.5,3.7c-0.3-0.3-0.5-0.6-0.8-0.9c-0.4-0.5-0.8-1-1.1-1.5
	c-0.2-0.2-0.4-0.5-0.5-0.7c0-0.1-0.1-0.1-0.1-0.2c-0.6-0.9-1.2-1.7-1.8-2.6c-0.5-0.7-0.9-1.4-1.4-2.2c-1.2-2.5-2.1-5.9-2.1-10.9
	v-2.6C119.1,48.2,120.8,49.8,122.4,51.4 M114,63.7c0.8-1.2,1.6-2.4,2.3-3.6c2.2,3.1,4.5,6,7,8.9c-2.8,0.9-5.5,1.8-8.3,2.7
	c-1.4,0.5-2.9,0.8-4.3,1.4c0,0,0,0-0.1-0.1c-0.4-0.3-1.1-0.4-1.5-0.5c-0.5-0.1-0.9-0.3-1.3-0.4C110,69.3,112,66.5,114,63.7
	 M104.1,76.1L104.1,76.1C104.2,76.1,104.2,76.1,104.1,76.1c3.1,1,6,1.9,9,2.9c1.3,0.4,2.8,1.2,4.2,1.4c0.7,0.1,1.5-0.3,2.2-0.5
	c2.2-0.7,4.5-1.5,6.7-2.2c1.3-0.4,2.7-0.9,4-1.3c2.4,2.4,4.9,4.7,7.4,6.9c3.4,2.9,6.8,5.6,10.3,8.2L114,102.3l-29.2-9.5
	C91.9,87.8,98.3,82.4,104.1,76.1 M146.1,86.9c-0.5-0.3-0.9-0.6-1.4-1c-0.1-0.1-0.1-0.1-0.2-0.1c-0.1,0-0.1-0.1-0.2-0.1
	c-0.2-0.2-0.4-0.3-0.7-0.5c-0.9-0.7-1.8-1.4-2.7-2.1c-0.9-0.7-1.7-1.4-2.6-2.1c-0.2-0.1-0.7-0.6-0.8-0.7c-0.3-0.3-0.6-0.5-0.9-0.8
	c-0.8-0.7-1.5-1.3-2.2-2c-0.3-0.3-0.7-0.6-1-0.9c-0.1-0.1-0.3-0.3-0.4-0.4l0,0c-0.3-0.3-0.5-0.5-0.8-0.8c4.5-1.5,9.1-2.9,13.5-4.4
	c1.2,0.9,2.5,1.8,3.8,2.7c5.9,4.1,12,7.6,18.3,10.9l-16.8,5.5C149.4,89.2,147.7,88.1,146.1,86.9 M139.7,63.6
	c-0.7-0.5-1.4-1.1-2.1-1.6c-1.4-1.1-2.7-2.1-4.1-3.3c-0.3-0.2-0.6-0.5-0.9-0.7c-0.1-0.1-0.6-0.5-0.7-0.6c-0.5-0.4-1-0.9-1.5-1.3
	c-1.1-1-2.2-1.9-3.3-2.9c-0.5-0.5-1-0.9-1.5-1.4c-0.2-0.2-0.4-0.4-0.7-0.6l0,0l0,0c-1.6-1.6-3.3-3.2-4.8-4.8
	c-0.3-0.3-0.5-0.5-0.8-0.8c-0.1-0.1-0.2-0.2-0.3-0.4c-0.5-0.5-1-1.1-1.5-1.6c-0.1-0.1-0.1-0.1-0.2-0.2V33
	c12.1,9.1,24.6,17.8,37.6,25.6c-1.5,0.5-2.9,0.9-4.4,1.4C147.2,61.2,143.4,62.4,139.7,63.6 M99.9,65.4c-0.9,1.1-1.9,2.1-2.8,3.2
	c-1.1-0.4-2.2-0.7-3.3-1.1c2.8-2.2,5.5-4.4,8.2-6.8c1.8-1.6,3.6-3.2,5.3-4.9C105.1,59.3,102.5,62.5,99.9,65.4 M172.8,83.3
	c-3.1-1.5-6.1-3-9.1-4.6c-5-2.6-9.9-5.4-14.6-8.5c0.5-0.2,1-0.3,1.5-0.5c5.2-1.7,10.3-3.3,15.5-5c4.3,2.2,8.7,4.2,13,6.2
	c4,1.9,8.1,3.8,11.9,5.9c0.2,0.1,0.5,0.3,0.7,0.4L172.8,83.3z M159.6,57.2c-9.3-4.7-17.9-10.4-26.7-16.4c-5-3.4-9.9-6.9-14.6-10.3
	c-0.2-0.1-0.4-0.3-0.6-0.4c0,0,0,0-0.1,0l0,0l0,0v-9.6c12,6.1,24.1,12.2,36,18.5c2.4,1.3,4.8,2.7,7.3,3.9c2.3,1.1,4.7,2.1,7.1,3.1
	c3.9,1.6,7.9,3.2,11.7,4.9C172.9,52.9,166.3,55.1,159.6,57.2 M110.5,25.3c-5.5,4.1-10.9,8.1-16.6,12c-9.7,6.8-19.5,13.5-30,19
	c-0.6,0.3-1.2,0.6-1.8,0.9c-4.2-1.4-8.4-2.7-12.5-4.1c0.7-0.3,1.3-0.6,2-0.9c7.4-3.1,14.9-5.8,22.1-9.3c3-1.5,6-3.2,9-4.8
	c4.7-2.4,9.3-4.9,13.9-7.3c4.5-2.3,8.9-4.6,13.3-6.9c0.2-0.1,0.4-0.2,0.7-0.3V25.3z M97.8,46.8c4-2.7,8-5.5,11.8-8.4
	c-3.7,4.3-7.8,8.3-11.8,12.1c-5,4.7-10.3,9-15.8,13c-1.4-0.4-2.8-0.9-4.2-1.3c-0.9-0.3-1.9-0.6-2.8-0.9C82.9,57,90.5,51.9,97.8,46.8
	 M48.3,102.9c-6.6,3.4-13,6.8-19.2,10.8c-1.6,1.1-3.2,2.2-4.6,3.3c-1.3-0.4-2.6-0.9-4-1.3c4.9-6.6,11.3-11.6,18.3-15.9L48.3,102.9z
	 M20,120.8c-2.3,2.2-4.4,4.6-6.2,7.2c1-2.8,2.3-5.4,3.8-8C18.4,120.3,19.2,120.6,20,120.8 M202.1,60.9c1.9,1,3.8,2,5.7,3.1
	c0.2,0.1,0.5,0.3,0.7,0.4c0,0,0.3,0.2,0.4,0.2c0.3,0.2,0.6,0.4,0.9,0.6c0.9,0.5,1.8,1.1,2.6,1.7c0.8,0.5,1.5,1,2.2,1.5l0,0
	c0.1,0.1,0.2,0.1,0.3,0.2c0.3,0.2,0.7,0.5,1,0.8l-19.9,6.4c-3.1-2-6.4-3.9-9.7-5.7c-4.9-2.6-9.9-4.9-14.8-7.2
	c3.4-1.1,6.8-2.2,10.1-3.3c3.6-1.1,7.1-2.3,10.6-3.4C195.6,57.8,198.9,59.3,202.1,60.9 M126,10.9c8.2,2.9,16.3,5.7,24.5,8.6
	c10.3,3.6,20.7,7.2,31,10.7c9.4,3.3,18.6,6.5,28,9.8c0.6,0.2,1.2,0.4,1.7,0.6c-1.1,0.4-2.2,0.7-3.4,1.1c-7.4,2.4-14.6,4.7-22,7.1
	c-2.1-0.9-4.2-1.8-6.3-2.7c-7.8-3.3-15.7-6.3-23.4-9.8c-2.9-1.3-5.7-3-8.5-4.5c-4.6-2.4-9.3-4.8-13.8-7.2
	c-5.5-2.8-10.8-5.6-16.3-8.4V8l0,0c0,0,0,0,0.1,0.1c0.4,0.3,1.1,0.4,1.5,0.5C121.4,9.4,123.7,10.2,126,10.9 M18.8,43.3
	c-0.5-0.2-0.9-0.3-1.4-0.5c1-0.4,2.1-0.7,3.1-1.1c8.7-3,17.2-6,25.9-9c10.3-3.6,20.8-7.3,31.1-10.8c9-3.1,18-6.3,27-9.4
	c2-0.7,4-1.4,6-2.1v2.5h-0.1c-0.8,0.3-1.6,0.8-2.4,1.2c-3.6,1.9-7.3,3.7-10.8,5.6c-9.1,4.6-18.1,9.3-27.1,14
	C64,37,57.5,39.5,51.2,42.1c-5.2,2.1-10.3,4.3-15.4,6.6C30.1,46.9,24.4,45.1,18.8,43.3 M23.6,66c6.1-3.8,12.4-7,19-9.9
	c1.2,0.4,2.4,0.8,3.5,1.1c3.2,1,6.3,2,9.5,3.1c-9.4,4.5-19,8.6-27.8,13.9l-10.9-3.5C18.9,69,21.3,67.5,23.6,66 M26.6,95.8
	c-5.1,3.6-9.7,7.8-13.4,12.7c-1,1.3-1.8,2.6-2.6,4c-0.1,0-0.2-0.1-0.4-0.1c1.1-7.3,4.8-13.4,9.7-18.7L26.6,95.8z M218.4,179.2
	c0,0.4,0,0.9,0,1.3c0,0.2,0.1,1.1,0,1.3c-0.2,0.2,0.1,0,0,0.1c0,0-0.2,0-0.2,0.1c-0.3,0.2-0.8,0.2-1.1,0.3c-1.5,0.5-3,1-4.5,1.4
	c-12.7,4.1-25.5,8.3-38.2,12.3c-15.1,4.9-30.2,9.8-45.4,14.6c-4.9,1.6-9.8,3.2-14.6,4.7c-1.2,0.4-2.4,0.8-3.5,1.1
	c-0.1,0-0.2,0.1-0.2,0.1c-0.1,0-0.2-0.1-0.4-0.1c-1-0.4-2.1-0.7-3.2-1c-2-0.7-4.1-1.3-6.1-2c-6.1-2-12.1-3.9-18.2-5.9
	c-15.6-5.1-31.1-10-46.8-15.1c-8.8-2.9-17.6-5.7-26.4-8.6c0.1-9.9,0.7-20,3.1-29.7c2.4,0.8,4.9,1.6,7.3,2.4
	c8.7,2.8,17.2,5.6,25.9,8.4c10.3,3.4,20.8,6.7,31.1,10c9,2.9,18,5.8,27,8.8c3,1,5.9,1.9,8.9,2.9c1.3,0.4,2.8,1.2,4.2,1.4
	c0.7,0.1,1.5-0.3,2.2-0.5c2.2-0.7,4.5-1.5,6.7-2.2c8.2-2.6,16.3-5.3,24.5-7.9c10.3-3.4,20.8-6.7,31.1-10c9.4-3,18.6-6,28-9.1
	c2.4-0.8,4.8-1.5,7.2-2.3C218,163.8,218.3,171.5,218.4,179.2 M217,130.6c0.5,2.7,0.9,5.5,1.1,8.2c0.1,0.9,0.1,1.7,0.1,2.6
	c-3.1-6.6-7.6-12.4-12.7-17.5c1.4-0.5,2.8-0.9,4.2-1.3c1.5-0.5,3.1-1,4.6-1.5C215.5,124.2,216.4,127.3,217,130.6 M212.7,92.5
	c0.1,0.1,0.4,0.6,0.6,0.8c0.3,0.4,0.5,0.8,0.7,1.2c0.1,0.2,0.2,0.3,0.3,0.5c0.1,0.1,0.2,0.4,0.3,0.5c0.3,0.5,0.5,1,0.8,1.5
	c1.8,3.6,2.8,7.5,3,11.4c0,0.6,0.3,1.5-0.1,1.8c-0.2,0.1-0.6,0.2-0.9,0.3c-1.6,0.5-3.1,1-4.7,1.5c-4.4-5.6-9.8-10.4-15.5-14.6
	l15.3-5C212.6,92.3,212.7,92.4,212.7,92.5"/>
<polyline id="XMLID_119_" class="st0" points="438.3,76.4 427,76.4 368.8,76.4 376.2,84 376.2,84 416.1,84 427.5,84 "/>
<path id="XMLID_118_" class="st0" d="M298.2,40.8l3.9,7.7h33.6c7.6,0,13.8,3.1,17.3,8.6c3,4.7,3.5,10.4,1.3,16.3l-0.2,0.6l0.7,0.4
	l0.4-0.3c9.1-5.6,10.8-14.1,9.6-19.9c-1.7-8.1-8.9-13.3-18.1-13.3h-38.8"/>
<path id="XMLID_117_" class="st0" d="M205.1,126.3C204.9,126,204.8,125.9,205.1,126.3"/>
<path id="XMLID_116_" class="st0" d="M206.5,107.8C206.4,107.8,206.4,107.7,206.5,107.8c-0.1-0.1-0.1-0.1-0.2-0.2l0,0
	C207,108.4,206.7,108.1,206.5,107.8"/>
<path id="XMLID_115_" class="st0" d="M203.5,105.1C203.3,104.9,203.1,104.7,203.5,105.1"/>
<path id="XMLID_114_" class="st0" d="M205.4,106.7C205.4,106.7,205.3,106.7,205.4,106.7C205.1,106.4,204.4,105.8,205.4,106.7"/>
<path id="XMLID_334_" class="st0" d="M225.9,80.7L225.9,80.7c-0.4-3.8-3.2-7.2-5.5-9.8c-3.7-4.1-8-7.6-12.5-10.5
	c-3.3-2.1-6.7-4.1-10.1-5.9c4-1.3,8-2.6,11.9-3.9c5.1-1.7,10.2-3.3,15.3-5c0.2-0.1,0.3-0.1,0.5-0.2c0.1,0,0.2,0,0.2-0.1
	c0.2-0.1,0.1-0.3-0.1-0.7c0-0.1,0-0.1-0.1-0.1c-0.4-0.9-1.2-1.8-1.8-2.5c-1.1-1.2-2.4-2.6-3.8-3.4c-0.3-0.2-0.7-0.5-1.1-0.5h-0.1
	c-3.6-1.3-7.2-2.5-10.7-3.8c-8.7-3-17.2-6-25.9-9c-10.3-3.6-20.8-7.3-31.1-10.8c-9-3.1-18-6.3-27-9.4c-3-1-5.9-2.1-8.9-3.1
	c-1.3-0.5-2.8-1.2-4.2-1.5c-0.7-0.1-1.5,0.4-2.2,0.6c-2.3,0.8-4.5,1.6-6.8,2.3C93.8,6.3,85.7,9.2,77.6,12
	c-10.3,3.6-20.8,7.2-31.1,10.8c-9.4,3.3-18.7,6.5-28.1,9.8c-5.1,1.8-10.1,3.6-15.3,5.3c-0.2,0.1-0.5,0.2-0.7,0.3
	c-0.8,0.3,2.4,3.8,2.5,3.9c1.3,1.3,2.8,2.9,4.5,3.5c3.6,1.2,7.2,2.3,10.7,3.5c3,1,5.9,1.9,8.9,2.9c-2.2,1.1-4.4,2.2-6.6,3.3
	c-4.2,2.3-8.3,4.7-12,7.6c-2.8,2.1-5.6,4.6-7.2,7.8c-0.6,1.2-0.9,2.5-1,3.8l-0.1,0.1V88l7,2.3c-4.3,5.8-6.9,12.6-7,20.1
	c0,0.4,0.4,1.1,0.8,1.5c0.4,0.5,0.8,1.1,1.2,1.5c0.1,0.1,0.2,0.3,0.4,0.4c0.1,0.1,0.1,0.1,0.2,0.2c0.9,1,2,2.1,3.2,2.8
	c-3.5,7.5-5.2,15.6-5.7,23.9c-0.1,1.9-0.2,3.7-0.2,5.6c0,0.4,0.4,1.1,0.8,1.5c0.4,0.5,0.8,1.1,1.2,1.5c0.1,0.1,0.2,0.3,0.4,0.4
	c0.1,0.1,0.1,0.1,0.2,0.2c-1.7,8.3-2.3,16.8-2.5,25.1C2,177.3,2,179.7,2,182.1c0,0.4,0.4,1.1,0.8,1.5c0.4,0.5,0.8,1.1,1.2,1.5
	c0.1,0.1,0.2,0.3,0.4,0.4c0.1,0.1,0.1,0.1,0.2,0.2c1.2,1.3,2.7,2.8,4.4,3.4c3.6,1.2,7.2,2.3,10.7,3.5c8.7,2.8,17.2,5.6,25.9,8.4
	c10.3,3.4,20.8,6.7,31.1,10c9,2.9,18,5.8,27,8.8c3,1,5.9,1.9,8.9,2.9c1.3,0.4,2.8,1.2,4.2,1.4c0.7,0.1,1.5-0.3,2.2-0.5
	c2.2-0.7,4.5-1.5,6.7-2.2c8.2-2.6,16.3-5.3,24.5-7.9c10.3-3.4,20.8-6.7,31.1-10c9.4-3,18.6-6,28-9.1c5.1-1.7,10.2-3.3,15.3-5
	c0.2-0.1,0.5-0.2,0.7-0.2c0-0.1,0-0.2,0.1-0.3c0-11.4-0.5-23.3-3.2-34.6c0.8-0.3,1.6-0.5,2.4-0.8c0.2-0.1,0.5-0.2,0.7-0.2
	c0-0.1,0-0.2,0.1-0.3c0-11.5-2.1-23-7.8-33.1c2.3-0.7,4.7-1.5,7-2.3c0.2-0.1,0.5-0.2,0.7-0.2c0-0.1,0-0.2,0.1-0.3
	c0-9.8-4.7-18.3-10.9-25.5l11-3.6v-7.3L225.9,80.7L225.9,80.7z M195.2,99.3c1.7,1.1,3.4,2.2,5.1,3.4c0.1,0.1,0.2,0.1,0.2,0.2
	c0,0,0.4,0.3,0.5,0.3c0.4,0.3,0.7,0.6,1.1,0.8c0.4,0.3,0.9,0.7,1.3,1c0.1,0.1,0.3,0.2,0.4,0.4c-0.1-0.1-0.2-0.2-0.3-0.2
	c0.1,0.1,0.3,0.2,0.4,0.3c0.4,0.3,0.8,0.7,1.1,1c0.2,0.2,0.3,0.3,0.5,0.5c-0.1-0.1-0.1-0.1-0.2-0.1c0.3,0.3,0.6,0.6,0.9,0.9
	c0-0.1-0.1-0.1-0.1-0.2c0.1,0.1,0.2,0.2,0.3,0.3l0.1,0.1c0.1,0.1,0.3,0.3,0.4,0.4c0.3,0.3,0.6,0.7,0.9,1c-1.1-1.1,0.2,0.2,0.4,0.6
	c0.2,0.3,0.4,0.6,0.7,0.9c0.1,0.1,0.2,0.2,0.2,0.3c0.2,0.3,0.4,0.5,0.6,0.8c0.2,0.3,0.4,0.6,0.6,0.9c-4.3,1.4-8.6,2.8-12.9,4.2
	c-6.8-4.9-14.1-8.9-21.5-12.7l18-5.8C194.2,98.7,194.7,99,195.2,99.3 M208.8,110.6C208.7,110.5,208.7,110.5,208.8,110.6
	 M205.7,126.8c0.3,0.3,1.4,1.8,0.3,0.3c0.5,0.6,1,1.3,1.5,1.9c0.1,0.1,0.2,0.3,0.3,0.4c0.3,0.4,0.6,0.8,0.8,1.2
	c0.2,0.4,0.5,0.7,0.7,1.1c0.1,0.2,0.5,0.8,0,0c0.1,0.2,0.2,0.4,0.3,0.6c0.4,0.8,0.9,1.6,1.3,2.4c1.9,3.8,3.1,7.3,4.1,11.2
	c0.1,0.3,0.2,0.7,0.2,1c-0.9,0.3-1.9,0.6-2.8,0.9c-5,1.6-9.9,3.2-14.8,4.8c-14.1,4.6-28.2,9.1-42.3,13.6c-12.2,4-24.5,7.9-36.6,11.8
	c-2.6,0.8-5.3,1.6-7.8,2.5l0,0c-0.1-0.1-0.3-0.1-0.4-0.1c-1-0.3-2-0.7-3.1-1c-10.6-3.5-21.3-6.9-31.9-10.3
	c-14.4-4.7-28.9-9.4-43.4-14c-5.9-1.9-11.8-3.8-17.7-5.7c0.5-1.5,1-3,1.5-4.4c3.3-8.4,8.7-15.2,15.6-20.7c4.9,1.6,9.8,3.2,14.6,4.7
	c10.3,3.4,20.8,6.7,31.1,10c9,2.9,18,5.8,27,8.8c3,1,5.9,1.9,8.9,2.9c1.3,0.4,2.8,1.2,4.2,1.4c0.7,0.1,1.5-0.3,2.2-0.5
	c2.2-0.7,4.5-1.5,6.7-2.2c8.2-2.6,16.3-5.3,24.5-7.9c10.3-3.4,20.8-6.7,31.1-10c7.2-2.3,14.3-4.6,21.5-7c0.2,0.1,0.3,0.3,0.5,0.5
	c0.4,0.3,1.7,1.7,0.2,0.2C204.5,125.7,205.1,126.2,205.7,126.8c-0.3-0.3-0.4-0.4-0.5-0.5C205.3,126.5,205.5,126.7,205.7,126.8
	 M110.8,180.7C110.5,180.9,110.6,180.7,110.8,180.7 M68.9,64.7c2.7,0.9,5.4,1.7,8.1,2.6c-4.4,3-9,5.8-13.5,8.4c-4,2.2-8,4.2-12,6.3
	l-10.8-3.5c1.4-0.7,2.7-1.5,4.1-2.2C52.5,72.2,60.8,68.7,68.9,64.7L68.9,64.7 M171.6,106c4,2.1,8,4.2,11.8,6.3c1.9,1,3.7,2,5.5,3
	c0.8,0.5,1.7,0.9,2.5,1.4c0.4,0.2,0.8,0.5,1.2,0.7c0.2,0.1,0.4,0.2,0.6,0.4c0.1,0,0.1,0.1,0.2,0.1c0,0,0,0,0.1,0.1
	c0.1,0.1,0.2,0.1,0.3,0.2c-0.8,0.2-1.5,0.5-2.3,0.7c-14,4.5-28,9.1-42,13.5c-11.1,3.6-22.3,7.2-33.4,10.7c-1.4,0.4-2.7,0.9-4.1,1.3
	c-0.4,0.1-0.8,0.3-1.2,0.4c0,0-0.2,0-0.3-0.1c-0.3-0.2-0.7-0.2-1-0.3c-1.3-0.4-2.6-0.8-3.8-1.2c-10.9-3.5-21.8-7.1-32.7-10.5
	c-12.1-3.9-24.3-7.9-36.5-11.7c8-5.3,16.6-9.4,25-13.8l52.6,17l0,0l0,0l0,0l0,0l56.8-18.3C171.2,105.8,171.4,105.9,171.6,106
	 M89,71.2c1.4,0.5,2.9,0.9,4.3,1.4c-6.2,6.1-13.1,11.5-20.4,16.3l-8.3-2.7c0.9-0.5,1.9-1,2.8-1.5C74.8,80.8,82.1,76.2,89,71.2
	 M122.4,51.4c4.7,4.6,9.6,9,14.6,13c-3.9,1.2-7.7,2.5-11.5,3.7c-0.3-0.3-0.5-0.6-0.8-0.9c-0.4-0.5-0.8-1-1.1-1.5
	c-0.2-0.2-0.4-0.5-0.5-0.7c0-0.1-0.1-0.1-0.1-0.2c-0.6-0.9-1.2-1.7-1.8-2.6c-0.5-0.7-0.9-1.4-1.4-2.2c-1.2-2.5-2.1-5.9-2.1-10.9
	v-2.6C119.1,48.2,120.8,49.8,122.4,51.4 M114,63.7c0.8-1.2,1.6-2.4,2.3-3.6c2.2,3.1,4.5,6,7,8.9c-2.8,0.9-5.5,1.8-8.3,2.7
	c-1.4,0.5-2.9,0.8-4.3,1.4c0,0,0,0-0.1-0.1c-0.4-0.3-1.1-0.4-1.5-0.5c-0.5-0.1-0.9-0.3-1.3-0.4C110,69.3,112,66.5,114,63.7
	 M104.1,76.1L104.1,76.1C104.2,76.1,104.2,76.1,104.1,76.1c3.1,1,6,1.9,9,2.9c1.3,0.4,2.8,1.2,4.2,1.4c0.7,0.1,1.5-0.3,2.2-0.5
	c2.2-0.7,4.5-1.5,6.7-2.2c1.3-0.4,2.7-0.9,4-1.3c2.4,2.4,4.9,4.7,7.4,6.9c3.4,2.9,6.8,5.6,10.3,8.2L114,102.3l-29.2-9.5
	C91.9,87.8,98.3,82.4,104.1,76.1 M146.1,86.9c-0.5-0.3-0.9-0.6-1.4-1c-0.1-0.1-0.1-0.1-0.2-0.1c-0.1,0-0.1-0.1-0.2-0.1
	c-0.2-0.2-0.4-0.3-0.7-0.5c-0.9-0.7-1.8-1.4-2.7-2.1c-0.9-0.7-1.7-1.4-2.6-2.1c-0.2-0.1-0.7-0.6-0.8-0.7c-0.3-0.3-0.6-0.5-0.9-0.8
	c-0.8-0.7-1.5-1.3-2.2-2c-0.3-0.3-0.7-0.6-1-0.9c-0.1-0.1-0.3-0.3-0.4-0.4l0,0c-0.3-0.3-0.5-0.5-0.8-0.8c4.5-1.5,9.1-2.9,13.5-4.4
	c1.2,0.9,2.5,1.8,3.8,2.7c5.9,4.1,12,7.6,18.3,10.9l-16.8,5.5C149.4,89.2,147.7,88.1,146.1,86.9 M139.7,63.6
	c-0.7-0.5-1.4-1.1-2.1-1.6c-1.4-1.1-2.7-2.1-4.1-3.3c-0.3-0.2-0.6-0.5-0.9-0.7c-0.1-0.1-0.6-0.5-0.7-0.6c-0.5-0.4-1-0.9-1.5-1.3
	c-1.1-1-2.2-1.9-3.3-2.9c-0.5-0.5-1-0.9-1.5-1.4c-0.2-0.2-0.4-0.4-0.7-0.6l0,0l0,0c-1.6-1.6-3.3-3.2-4.8-4.8
	c-0.3-0.3-0.5-0.5-0.8-0.8c-0.1-0.1-0.2-0.2-0.3-0.4c-0.5-0.5-1-1.1-1.5-1.6c-0.1-0.1-0.1-0.1-0.2-0.2V33
	c12.1,9.1,24.6,17.8,37.6,25.6c-1.5,0.5-2.9,0.9-4.4,1.4C147.2,61.2,143.4,62.4,139.7,63.6 M99.9,65.4c-0.9,1.1-1.9,2.1-2.8,3.2
	c-1.1-0.4-2.2-0.7-3.3-1.1c2.8-2.2,5.5-4.4,8.2-6.8c1.8-1.6,3.6-3.2,5.3-4.9C105.1,59.3,102.5,62.5,99.9,65.4 M172.8,83.3
	c-3.1-1.5-6.1-3-9.1-4.6c-5-2.6-9.9-5.4-14.6-8.5c0.5-0.2,1-0.3,1.5-0.5c5.2-1.7,10.3-3.3,15.5-5c4.3,2.2,8.7,4.2,13,6.2
	c4,1.9,8.1,3.8,11.9,5.9c0.2,0.1,0.5,0.3,0.7,0.4L172.8,83.3z M159.6,57.2c-9.3-4.7-17.9-10.4-26.7-16.4c-5-3.4-9.9-6.9-14.6-10.3
	c-0.2-0.1-0.4-0.3-0.6-0.4c0,0,0,0-0.1,0l0,0l0,0v-9.6c12,6.1,24.1,12.2,36,18.5c2.4,1.3,4.8,2.7,7.3,3.9c2.3,1.1,4.7,2.1,7.1,3.1
	c3.9,1.6,7.9,3.2,11.7,4.9C172.9,52.9,166.3,55.1,159.6,57.2 M110.5,25.3c-5.5,4.1-10.9,8.1-16.6,12c-9.7,6.8-19.5,13.5-30,19
	c-0.6,0.3-1.2,0.6-1.8,0.9c-4.2-1.4-8.4-2.7-12.5-4.1c0.7-0.3,1.3-0.6,2-0.9c7.4-3.1,14.9-5.8,22.1-9.3c3-1.5,6-3.2,9-4.8
	c4.7-2.4,9.3-4.9,13.9-7.3c4.5-2.3,8.9-4.6,13.3-6.9c0.2-0.1,0.4-0.2,0.7-0.3V25.3z M97.8,46.8c4-2.7,8-5.5,11.8-8.4
	c-3.7,4.3-7.8,8.3-11.8,12.1c-5,4.7-10.3,9-15.8,13c-1.4-0.4-2.8-0.9-4.2-1.3c-0.9-0.3-1.9-0.6-2.8-0.9C82.9,57,90.5,51.9,97.8,46.8
	 M48.3,102.9c-6.6,3.4-13,6.8-19.2,10.8c-1.6,1.1-3.2,2.2-4.6,3.3c-1.3-0.4-2.6-0.9-4-1.3c4.9-6.6,11.3-11.6,18.3-15.9L48.3,102.9z
	 M20,120.8c-2.3,2.2-4.4,4.6-6.2,7.2c1-2.8,2.3-5.4,3.8-8C18.4,120.3,19.2,120.6,20,120.8 M202.1,60.9c1.9,1,3.8,2,5.7,3.1
	c0.2,0.1,0.5,0.3,0.7,0.4c0,0,0.3,0.2,0.4,0.2c0.3,0.2,0.6,0.4,0.9,0.6c0.9,0.5,1.8,1.1,2.6,1.7c0.8,0.5,1.5,1,2.2,1.5l0,0
	c0.1,0.1,0.2,0.1,0.3,0.2c0.3,0.2,0.7,0.5,1,0.8l-19.9,6.4c-3.1-2-6.4-3.9-9.7-5.7c-4.9-2.6-9.9-4.9-14.8-7.2
	c3.4-1.1,6.8-2.2,10.1-3.3c3.6-1.1,7.1-2.3,10.6-3.4C195.6,57.8,198.9,59.3,202.1,60.9 M126,10.9c8.2,2.9,16.3,5.7,24.5,8.6
	c10.3,3.6,20.7,7.2,31,10.7c9.4,3.3,18.6,6.5,28,9.8c0.6,0.2,1.2,0.4,1.7,0.6c-1.1,0.4-2.2,0.7-3.4,1.1c-7.4,2.4-14.6,4.7-22,7.1
	c-2.1-0.9-4.2-1.8-6.3-2.7c-7.8-3.3-15.7-6.3-23.4-9.8c-2.9-1.3-5.7-3-8.5-4.5c-4.6-2.4-9.3-4.8-13.8-7.2
	c-5.5-2.8-10.8-5.6-16.3-8.4V8l0,0c0,0,0,0,0.1,0.1c0.4,0.3,1.1,0.4,1.5,0.5C121.4,9.4,123.7,10.2,126,10.9 M18.8,43.3
	c-0.5-0.2-0.9-0.3-1.4-0.5c1-0.4,2.1-0.7,3.1-1.1c8.7-3,17.2-6,25.9-9c10.3-3.6,20.8-7.3,31.1-10.8c9-3.1,18-6.3,27-9.4
	c2-0.7,4-1.4,6-2.1v2.5h-0.1c-0.8,0.3-1.6,0.8-2.4,1.2c-3.6,1.9-7.3,3.7-10.8,5.6c-9.1,4.6-18.1,9.3-27.1,14
	C64,37,57.5,39.5,51.2,42.1c-5.2,2.1-10.3,4.3-15.4,6.6C30.1,46.9,24.4,45.1,18.8,43.3 M23.6,66c6.1-3.8,12.4-7,19-9.9
	c1.2,0.4,2.4,0.8,3.5,1.1c3.2,1,6.3,2,9.5,3.1c-9.4,4.5-19,8.6-27.8,13.9l-10.9-3.5C18.9,69,21.3,67.5,23.6,66 M26.6,95.8
	c-5.1,3.6-9.7,7.8-13.4,12.7c-1,1.3-1.8,2.6-2.6,4c-0.1,0-0.2-0.1-0.4-0.1c1.1-7.3,4.8-13.4,9.7-18.7L26.6,95.8z M218.4,179.2
	c0,0.4,0,0.9,0,1.3c0,0.2,0.1,1.1,0,1.3c-0.2,0.2,0.1,0,0,0.1c0,0-0.2,0-0.2,0.1c-0.3,0.2-0.8,0.2-1.1,0.3c-1.5,0.5-3,1-4.5,1.4
	c-12.7,4.1-25.5,8.3-38.2,12.3c-15.1,4.9-30.2,9.8-45.4,14.6c-4.9,1.6-9.8,3.2-14.6,4.7c-1.2,0.4-2.4,0.8-3.5,1.1
	c-0.1,0-0.2,0.1-0.2,0.1c-0.1,0-0.2-0.1-0.4-0.1c-1-0.4-2.1-0.7-3.2-1c-2-0.7-4.1-1.3-6.1-2c-6.1-2-12.1-3.9-18.2-5.9
	c-15.6-5.1-31.1-10-46.8-15.1c-8.8-2.9-17.6-5.7-26.4-8.6c0.1-9.9,0.7-20,3.1-29.7c2.4,0.8,4.9,1.6,7.3,2.4
	c8.7,2.8,17.2,5.6,25.9,8.4c10.3,3.4,20.8,6.7,31.1,10c9,2.9,18,5.8,27,8.8c3,1,5.9,1.9,8.9,2.9c1.3,0.4,2.8,1.2,4.2,1.4
	c0.7,0.1,1.5-0.3,2.2-0.5c2.2-0.7,4.5-1.5,6.7-2.2c8.2-2.6,16.3-5.3,24.5-7.9c10.3-3.4,20.8-6.7,31.1-10c9.4-3,18.6-6,28-9.1
	c2.4-0.8,4.8-1.5,7.2-2.3C218,163.8,218.3,171.5,218.4,179.2 M217,130.6c0.5,2.7,0.9,5.5,1.1,8.2c0.1,0.9,0.1,1.7,0.1,2.6
	c-3.1-6.6-7.6-12.4-12.7-17.5c1.4-0.5,2.8-0.9,4.2-1.3c1.5-0.5,3.1-1,4.6-1.5C215.5,124.2,216.4,127.3,217,130.6 M212.7,92.5
	c0.1,0.1,0.4,0.6,0.6,0.8c0.3,0.4,0.5,0.8,0.7,1.2c0.1,0.2,0.2,0.3,0.3,0.5c0.1,0.1,0.2,0.4,0.3,0.5c0.3,0.5,0.5,1,0.8,1.5
	c1.8,3.6,2.8,7.5,3,11.4c0,0.6,0.3,1.5-0.1,1.8c-0.2,0.1-0.6,0.2-0.9,0.3c-1.6,0.5-3.1,1-4.7,1.5c-4.4-5.6-9.8-10.4-15.5-14.6
	l15.3-5C212.6,92.3,212.7,92.4,212.7,92.5"/>
<polyline id="XMLID_85_" class="st0" points="438.3,76.4 427,76.4 368.8,76.4 376.2,84 376.2,84 416.1,84 427.5,84 "/>
<path id="XMLID_84_" class="st0" d="M367.7,76.3V84h-67c-7.6,0-13.8,3.1-17.3,8.6c-3,4.7-3.5,10.4-1.3,16.3l0.2,0.6l-0.7,0.4
	l-0.4-0.3c-9.1-5.6-10.8-14.1-9.6-19.9c1.7-8.1,8.9-13.3,18.1-13.3h38.8"/>
<path id="XMLID_83_" class="st0" d="M205.1,126.3C204.9,126,204.8,125.9,205.1,126.3"/>
<path id="XMLID_82_" class="st0" d="M206.5,107.8C206.4,107.8,206.4,107.7,206.5,107.8c-0.1-0.1-0.1-0.1-0.2-0.2l0,0
	C207,108.4,206.7,108.1,206.5,107.8"/>
<path id="XMLID_81_" class="st0" d="M203.5,105.1C203.3,104.9,203.1,104.7,203.5,105.1"/>
<path id="XMLID_80_" class="st0" d="M205.4,106.7C205.4,106.7,205.3,106.7,205.4,106.7C205.1,106.4,204.4,105.8,205.4,106.7"/>
<path id="XMLID_299_" class="st0" d="M225.9,80.7L225.9,80.7c-0.4-3.8-3.2-7.2-5.5-9.8c-3.7-4.1-8-7.6-12.5-10.5
	c-3.3-2.1-6.7-4.1-10.1-5.9c4-1.3,8-2.6,11.9-3.9c5.1-1.7,10.2-3.3,15.3-5c0.2-0.1,0.3-0.1,0.5-0.2c0.1,0,0.2,0,0.2-0.1
	c0.2-0.1,0.1-0.3-0.1-0.7c0-0.1,0-0.1-0.1-0.1c-0.4-0.9-1.2-1.8-1.8-2.5c-1.1-1.2-2.4-2.6-3.8-3.4c-0.3-0.2-0.7-0.5-1.1-0.5h-0.1
	c-3.6-1.3-7.2-2.5-10.7-3.8c-8.7-3-17.2-6-25.9-9c-10.3-3.6-20.8-7.3-31.1-10.8c-9-3.1-18-6.3-27-9.4c-3-1-5.9-2.1-8.9-3.1
	c-1.3-0.5-2.8-1.2-4.2-1.5c-0.7-0.1-1.5,0.4-2.2,0.6c-2.3,0.8-4.5,1.6-6.8,2.3C93.8,6.3,85.7,9.2,77.6,12
	c-10.3,3.6-20.8,7.2-31.1,10.8c-9.4,3.3-18.7,6.5-28.1,9.8c-5.1,1.8-10.1,3.6-15.3,5.3c-0.2,0.1-0.5,0.2-0.7,0.3
	c-0.8,0.3,2.4,3.8,2.5,3.9c1.3,1.3,2.8,2.9,4.5,3.5c3.6,1.2,7.2,2.3,10.7,3.5c3,1,5.9,1.9,8.9,2.9c-2.2,1.1-4.4,2.2-6.6,3.3
	c-4.2,2.3-8.3,4.7-12,7.6c-2.8,2.1-5.6,4.6-7.2,7.8c-0.6,1.2-0.9,2.5-1,3.8l-0.1,0.1V88l7,2.3c-4.3,5.8-6.9,12.6-7,20.1
	c0,0.4,0.4,1.1,0.8,1.5c0.4,0.5,0.8,1.1,1.2,1.5c0.1,0.1,0.2,0.3,0.4,0.4c0.1,0.1,0.1,0.1,0.2,0.2c0.9,1,2,2.1,3.2,2.8
	c-3.5,7.5-5.2,15.6-5.7,23.9c-0.1,1.9-0.2,3.7-0.2,5.6c0,0.4,0.4,1.1,0.8,1.5c0.4,0.5,0.8,1.1,1.2,1.5c0.1,0.1,0.2,0.3,0.4,0.4
	c0.1,0.1,0.1,0.1,0.2,0.2c-1.7,8.3-2.3,16.8-2.5,25.1C2,177.3,2,179.7,2,182.1c0,0.4,0.4,1.1,0.8,1.5c0.4,0.5,0.8,1.1,1.2,1.5
	c0.1,0.1,0.2,0.3,0.4,0.4c0.1,0.1,0.1,0.1,0.2,0.2c1.2,1.3,2.7,2.8,4.4,3.4c3.6,1.2,7.2,2.3,10.7,3.5c8.7,2.8,17.2,5.6,25.9,8.4
	c10.3,3.4,20.8,6.7,31.1,10c9,2.9,18,5.8,27,8.8c3,1,5.9,1.9,8.9,2.9c1.3,0.4,2.8,1.2,4.2,1.4c0.7,0.1,1.5-0.3,2.2-0.5
	c2.2-0.7,4.5-1.5,6.7-2.2c8.2-2.6,16.3-5.3,24.5-7.9c10.3-3.4,20.8-6.7,31.1-10c9.4-3,18.6-6,28-9.1c5.1-1.7,10.2-3.3,15.3-5
	c0.2-0.1,0.5-0.2,0.7-0.2c0-0.1,0-0.2,0.1-0.3c0-11.4-0.5-23.3-3.2-34.6c0.8-0.3,1.6-0.5,2.4-0.8c0.2-0.1,0.5-0.2,0.7-0.2
	c0-0.1,0-0.2,0.1-0.3c0-11.5-2.1-23-7.8-33.1c2.3-0.7,4.7-1.5,7-2.3c0.2-0.1,0.5-0.2,0.7-0.2c0-0.1,0-0.2,0.1-0.3
	c0-9.8-4.7-18.3-10.9-25.5l11-3.6v-7.3L225.9,80.7L225.9,80.7z M195.2,99.3c1.7,1.1,3.4,2.2,5.1,3.4c0.1,0.1,0.2,0.1,0.2,0.2
	c0,0,0.4,0.3,0.5,0.3c0.4,0.3,0.7,0.6,1.1,0.8c0.4,0.3,0.9,0.7,1.3,1c0.1,0.1,0.3,0.2,0.4,0.4c-0.1-0.1-0.2-0.2-0.3-0.2
	c0.1,0.1,0.3,0.2,0.4,0.3c0.4,0.3,0.8,0.7,1.1,1c0.2,0.2,0.3,0.3,0.5,0.5c-0.1-0.1-0.1-0.1-0.2-0.1c0.3,0.3,0.6,0.6,0.9,0.9
	c0-0.1-0.1-0.1-0.1-0.2c0.1,0.1,0.2,0.2,0.3,0.3l0.1,0.1c0.1,0.1,0.3,0.3,0.4,0.4c0.3,0.3,0.6,0.7,0.9,1c-1.1-1.1,0.2,0.2,0.4,0.6
	c0.2,0.3,0.4,0.6,0.7,0.9c0.1,0.1,0.2,0.2,0.2,0.3c0.2,0.3,0.4,0.5,0.6,0.8c0.2,0.3,0.4,0.6,0.6,0.9c-4.3,1.4-8.6,2.8-12.9,4.2
	c-6.8-4.9-14.1-8.9-21.5-12.7l18-5.8C194.2,98.7,194.7,99,195.2,99.3 M208.8,110.6C208.7,110.5,208.7,110.5,208.8,110.6
	 M205.7,126.8c0.3,0.3,1.4,1.8,0.3,0.3c0.5,0.6,1,1.3,1.5,1.9c0.1,0.1,0.2,0.3,0.3,0.4c0.3,0.4,0.6,0.8,0.8,1.2
	c0.2,0.4,0.5,0.7,0.7,1.1c0.1,0.2,0.5,0.8,0,0c0.1,0.2,0.2,0.4,0.3,0.6c0.4,0.8,0.9,1.6,1.3,2.4c1.9,3.8,3.1,7.3,4.1,11.2
	c0.1,0.3,0.2,0.7,0.2,1c-0.9,0.3-1.9,0.6-2.8,0.9c-5,1.6-9.9,3.2-14.8,4.8c-14.1,4.6-28.2,9.1-42.3,13.6c-12.2,4-24.5,7.9-36.6,11.8
	c-2.6,0.8-5.3,1.6-7.8,2.5l0,0c-0.1-0.1-0.3-0.1-0.4-0.1c-1-0.3-2-0.7-3.1-1c-10.6-3.5-21.3-6.9-31.9-10.3
	c-14.4-4.7-28.9-9.4-43.4-14c-5.9-1.9-11.8-3.8-17.7-5.7c0.5-1.5,1-3,1.5-4.4c3.3-8.4,8.7-15.2,15.6-20.7c4.9,1.6,9.8,3.2,14.6,4.7
	c10.3,3.4,20.8,6.7,31.1,10c9,2.9,18,5.8,27,8.8c3,1,5.9,1.9,8.9,2.9c1.3,0.4,2.8,1.2,4.2,1.4c0.7,0.1,1.5-0.3,2.2-0.5
	c2.2-0.7,4.5-1.5,6.7-2.2c8.2-2.6,16.3-5.3,24.5-7.9c10.3-3.4,20.8-6.7,31.1-10c7.2-2.3,14.3-4.6,21.5-7c0.2,0.1,0.3,0.3,0.5,0.5
	c0.4,0.3,1.7,1.7,0.2,0.2C204.5,125.7,205.1,126.2,205.7,126.8c-0.3-0.3-0.4-0.4-0.5-0.5C205.3,126.5,205.5,126.7,205.7,126.8
	 M110.8,180.7C110.5,180.9,110.6,180.7,110.8,180.7 M68.9,64.7c2.7,0.9,5.4,1.7,8.1,2.6c-4.4,3-9,5.8-13.5,8.4c-4,2.2-8,4.2-12,6.3
	l-10.8-3.5c1.4-0.7,2.7-1.5,4.1-2.2C52.5,72.2,60.8,68.7,68.9,64.7L68.9,64.7 M171.6,106c4,2.1,8,4.2,11.8,6.3c1.9,1,3.7,2,5.5,3
	c0.8,0.5,1.7,0.9,2.5,1.4c0.4,0.2,0.8,0.5,1.2,0.7c0.2,0.1,0.4,0.2,0.6,0.4c0.1,0,0.1,0.1,0.2,0.1c0,0,0,0,0.1,0.1
	c0.1,0.1,0.2,0.1,0.3,0.2c-0.8,0.2-1.5,0.5-2.3,0.7c-14,4.5-28,9.1-42,13.5c-11.1,3.6-22.3,7.2-33.4,10.7c-1.4,0.4-2.7,0.9-4.1,1.3
	c-0.4,0.1-0.8,0.3-1.2,0.4c0,0-0.2,0-0.3-0.1c-0.3-0.2-0.7-0.2-1-0.3c-1.3-0.4-2.6-0.8-3.8-1.2c-10.9-3.5-21.8-7.1-32.7-10.5
	c-12.1-3.9-24.3-7.9-36.5-11.7c8-5.3,16.6-9.4,25-13.8l52.6,17l0,0l0,0l0,0l0,0l56.8-18.3C171.2,105.8,171.4,105.9,171.6,106
	 M89,71.2c1.4,0.5,2.9,0.9,4.3,1.4c-6.2,6.1-13.1,11.5-20.4,16.3l-8.3-2.7c0.9-0.5,1.9-1,2.8-1.5C74.8,80.8,82.1,76.2,89,71.2
	 M122.4,51.4c4.7,4.6,9.6,9,14.6,13c-3.9,1.2-7.7,2.5-11.5,3.7c-0.3-0.3-0.5-0.6-0.8-0.9c-0.4-0.5-0.8-1-1.1-1.5
	c-0.2-0.2-0.4-0.5-0.5-0.7c0-0.1-0.1-0.1-0.1-0.2c-0.6-0.9-1.2-1.7-1.8-2.6c-0.5-0.7-0.9-1.4-1.4-2.2c-1.2-2.5-2.1-5.9-2.1-10.9
	v-2.6C119.1,48.2,120.8,49.8,122.4,51.4 M114,63.7c0.8-1.2,1.6-2.4,2.3-3.6c2.2,3.1,4.5,6,7,8.9c-2.8,0.9-5.5,1.8-8.3,2.7
	c-1.4,0.5-2.9,0.8-4.3,1.4c0,0,0,0-0.1-0.1c-0.4-0.3-1.1-0.4-1.5-0.5c-0.5-0.1-0.9-0.3-1.3-0.4C110,69.3,112,66.5,114,63.7
	 M104.1,76.1L104.1,76.1C104.2,76.1,104.2,76.1,104.1,76.1c3.1,1,6,1.9,9,2.9c1.3,0.4,2.8,1.2,4.2,1.4c0.7,0.1,1.5-0.3,2.2-0.5
	c2.2-0.7,4.5-1.5,6.7-2.2c1.3-0.4,2.7-0.9,4-1.3c2.4,2.4,4.9,4.7,7.4,6.9c3.4,2.9,6.8,5.6,10.3,8.2L114,102.3l-29.2-9.5
	C91.9,87.8,98.3,82.4,104.1,76.1 M146.1,86.9c-0.5-0.3-0.9-0.6-1.4-1c-0.1-0.1-0.1-0.1-0.2-0.1c-0.1,0-0.1-0.1-0.2-0.1
	c-0.2-0.2-0.4-0.3-0.7-0.5c-0.9-0.7-1.8-1.4-2.7-2.1c-0.9-0.7-1.7-1.4-2.6-2.1c-0.2-0.1-0.7-0.6-0.8-0.7c-0.3-0.3-0.6-0.5-0.9-0.8
	c-0.8-0.7-1.5-1.3-2.2-2c-0.3-0.3-0.7-0.6-1-0.9c-0.1-0.1-0.3-0.3-0.4-0.4l0,0c-0.3-0.3-0.5-0.5-0.8-0.8c4.5-1.5,9.1-2.9,13.5-4.4
	c1.2,0.9,2.5,1.8,3.8,2.7c5.9,4.1,12,7.6,18.3,10.9l-16.8,5.5C149.4,89.2,147.7,88.1,146.1,86.9 M139.7,63.6
	c-0.7-0.5-1.4-1.1-2.1-1.6c-1.4-1.1-2.7-2.1-4.1-3.3c-0.3-0.2-0.6-0.5-0.9-0.7c-0.1-0.1-0.6-0.5-0.7-0.6c-0.5-0.4-1-0.9-1.5-1.3
	c-1.1-1-2.2-1.9-3.3-2.9c-0.5-0.5-1-0.9-1.5-1.4c-0.2-0.2-0.4-0.4-0.7-0.6l0,0l0,0c-1.6-1.6-3.3-3.2-4.8-4.8
	c-0.3-0.3-0.5-0.5-0.8-0.8c-0.1-0.1-0.2-0.2-0.3-0.4c-0.5-0.5-1-1.1-1.5-1.6c-0.1-0.1-0.1-0.1-0.2-0.2V33
	c12.1,9.1,24.6,17.8,37.6,25.6c-1.5,0.5-2.9,0.9-4.4,1.4C147.2,61.2,143.4,62.4,139.7,63.6 M99.9,65.4c-0.9,1.1-1.9,2.1-2.8,3.2
	c-1.1-0.4-2.2-0.7-3.3-1.1c2.8-2.2,5.5-4.4,8.2-6.8c1.8-1.6,3.6-3.2,5.3-4.9C105.1,59.3,102.5,62.5,99.9,65.4 M172.8,83.3
	c-3.1-1.5-6.1-3-9.1-4.6c-5-2.6-9.9-5.4-14.6-8.5c0.5-0.2,1-0.3,1.5-0.5c5.2-1.7,10.3-3.3,15.5-5c4.3,2.2,8.7,4.2,13,6.2
	c4,1.9,8.1,3.8,11.9,5.9c0.2,0.1,0.5,0.3,0.7,0.4L172.8,83.3z M159.6,57.2c-9.3-4.7-17.9-10.4-26.7-16.4c-5-3.4-9.9-6.9-14.6-10.3
	c-0.2-0.1-0.4-0.3-0.6-0.4c0,0,0,0-0.1,0l0,0l0,0v-9.6c12,6.1,24.1,12.2,36,18.5c2.4,1.3,4.8,2.7,7.3,3.9c2.3,1.1,4.7,2.1,7.1,3.1
	c3.9,1.6,7.9,3.2,11.7,4.9C172.9,52.9,166.3,55.1,159.6,57.2 M110.5,25.3c-5.5,4.1-10.9,8.1-16.6,12c-9.7,6.8-19.5,13.5-30,19
	c-0.6,0.3-1.2,0.6-1.8,0.9c-4.2-1.4-8.4-2.7-12.5-4.1c0.7-0.3,1.3-0.6,2-0.9c7.4-3.1,14.9-5.8,22.1-9.3c3-1.5,6-3.2,9-4.8
	c4.7-2.4,9.3-4.9,13.9-7.3c4.5-2.3,8.9-4.6,13.3-6.9c0.2-0.1,0.4-0.2,0.7-0.3V25.3z M97.8,46.8c4-2.7,8-5.5,11.8-8.4
	c-3.7,4.3-7.8,8.3-11.8,12.1c-5,4.7-10.3,9-15.8,13c-1.4-0.4-2.8-0.9-4.2-1.3c-0.9-0.3-1.9-0.6-2.8-0.9C82.9,57,90.5,51.9,97.8,46.8
	 M48.3,102.9c-6.6,3.4-13,6.8-19.2,10.8c-1.6,1.1-3.2,2.2-4.6,3.3c-1.3-0.4-2.6-0.9-4-1.3c4.9-6.6,11.3-11.6,18.3-15.9L48.3,102.9z
	 M20,120.8c-2.3,2.2-4.4,4.6-6.2,7.2c1-2.8,2.3-5.4,3.8-8C18.4,120.3,19.2,120.6,20,120.8 M202.1,60.9c1.9,1,3.8,2,5.7,3.1
	c0.2,0.1,0.5,0.3,0.7,0.4c0,0,0.3,0.2,0.4,0.2c0.3,0.2,0.6,0.4,0.9,0.6c0.9,0.5,1.8,1.1,2.6,1.7c0.8,0.5,1.5,1,2.2,1.5l0,0
	c0.1,0.1,0.2,0.1,0.3,0.2c0.3,0.2,0.7,0.5,1,0.8l-19.9,6.4c-3.1-2-6.4-3.9-9.7-5.7c-4.9-2.6-9.9-4.9-14.8-7.2
	c3.4-1.1,6.8-2.2,10.1-3.3c3.6-1.1,7.1-2.3,10.6-3.4C195.6,57.8,198.9,59.3,202.1,60.9 M126,10.9c8.2,2.9,16.3,5.7,24.5,8.6
	c10.3,3.6,20.7,7.2,31,10.7c9.4,3.3,18.6,6.5,28,9.8c0.6,0.2,1.2,0.4,1.7,0.6c-1.1,0.4-2.2,0.7-3.4,1.1c-7.4,2.4-14.6,4.7-22,7.1
	c-2.1-0.9-4.2-1.8-6.3-2.7c-7.8-3.3-15.7-6.3-23.4-9.8c-2.9-1.3-5.7-3-8.5-4.5c-4.6-2.4-9.3-4.8-13.8-7.2
	c-5.5-2.8-10.8-5.6-16.3-8.4V8l0,0c0,0,0,0,0.1,0.1c0.4,0.3,1.1,0.4,1.5,0.5C121.4,9.4,123.7,10.2,126,10.9 M18.8,43.3
	c-0.5-0.2-0.9-0.3-1.4-0.5c1-0.4,2.1-0.7,3.1-1.1c8.7-3,17.2-6,25.9-9c10.3-3.6,20.8-7.3,31.1-10.8c9-3.1,18-6.3,27-9.4
	c2-0.7,4-1.4,6-2.1v2.5h-0.1c-0.8,0.3-1.6,0.8-2.4,1.2c-3.6,1.9-7.3,3.7-10.8,5.6c-9.1,4.6-18.1,9.3-27.1,14
	C64,37,57.5,39.5,51.2,42.1c-5.2,2.1-10.3,4.3-15.4,6.6C30.1,46.9,24.4,45.1,18.8,43.3 M23.6,66c6.1-3.8,12.4-7,19-9.9
	c1.2,0.4,2.4,0.8,3.5,1.1c3.2,1,6.3,2,9.5,3.1c-9.4,4.5-19,8.6-27.8,13.9l-10.9-3.5C18.9,69,21.3,67.5,23.6,66 M26.6,95.8
	c-5.1,3.6-9.7,7.8-13.4,12.7c-1,1.3-1.8,2.6-2.6,4c-0.1,0-0.2-0.1-0.4-0.1c1.1-7.3,4.8-13.4,9.7-18.7L26.6,95.8z M218.4,179.2
	c0,0.4,0,0.9,0,1.3c0,0.2,0.1,1.1,0,1.3c-0.2,0.2,0.1,0,0,0.1c0,0-0.2,0-0.2,0.1c-0.3,0.2-0.8,0.2-1.1,0.3c-1.5,0.5-3,1-4.5,1.4
	c-12.7,4.1-25.5,8.3-38.2,12.3c-15.1,4.9-30.2,9.8-45.4,14.6c-4.9,1.6-9.8,3.2-14.6,4.7c-1.2,0.4-2.4,0.8-3.5,1.1
	c-0.1,0-0.2,0.1-0.2,0.1c-0.1,0-0.2-0.1-0.4-0.1c-1-0.4-2.1-0.7-3.2-1c-2-0.7-4.1-1.3-6.1-2c-6.1-2-12.1-3.9-18.2-5.9
	c-15.6-5.1-31.1-10-46.8-15.1c-8.8-2.9-17.6-5.7-26.4-8.6c0.1-9.9,0.7-20,3.1-29.7c2.4,0.8,4.9,1.6,7.3,2.4
	c8.7,2.8,17.2,5.6,25.9,8.4c10.3,3.4,20.8,6.7,31.1,10c9,2.9,18,5.8,27,8.8c3,1,5.9,1.9,8.9,2.9c1.3,0.4,2.8,1.2,4.2,1.4
	c0.7,0.1,1.5-0.3,2.2-0.5c2.2-0.7,4.5-1.5,6.7-2.2c8.2-2.6,16.3-5.3,24.5-7.9c10.3-3.4,20.8-6.7,31.1-10c9.4-3,18.6-6,28-9.1
	c2.4-0.8,4.8-1.5,7.2-2.3C218,163.8,218.3,171.5,218.4,179.2 M217,130.6c0.5,2.7,0.9,5.5,1.1,8.2c0.1,0.9,0.1,1.7,0.1,2.6
	c-3.1-6.6-7.6-12.4-12.7-17.5c1.4-0.5,2.8-0.9,4.2-1.3c1.5-0.5,3.1-1,4.6-1.5C215.5,124.2,216.4,127.3,217,130.6 M212.7,92.5
	c0.1,0.1,0.4,0.6,0.6,0.8c0.3,0.4,0.5,0.8,0.7,1.2c0.1,0.2,0.2,0.3,0.3,0.5c0.1,0.1,0.2,0.4,0.3,0.5c0.3,0.5,0.5,1,0.8,1.5
	c1.8,3.6,2.8,7.5,3,11.4c0,0.6,0.3,1.5-0.1,1.8c-0.2,0.1-0.6,0.2-0.9,0.3c-1.6,0.5-3.1,1-4.7,1.5c-4.4-5.6-9.8-10.4-15.5-14.6
	l15.3-5C212.6,92.3,212.7,92.4,212.7,92.5"/>
<path id="XMLID_51_" class="st0" d="M205.1,126.3C204.9,126,204.8,125.9,205.1,126.3"/>
<path id="XMLID_50_" class="st0" d="M206.5,107.8C206.4,107.8,206.4,107.7,206.5,107.8c-0.1-0.1-0.1-0.1-0.2-0.2l0,0
	C207,108.4,206.7,108.1,206.5,107.8"/>
<path id="XMLID_49_" class="st0" d="M203.5,105.1C203.3,104.9,203.1,104.7,203.5,105.1"/>
<path id="XMLID_48_" class="st0" d="M205.4,106.7C205.4,106.7,205.3,106.7,205.4,106.7C205.1,106.4,204.4,105.8,205.4,106.7"/>
<path id="XMLID_266_" class="st0" d="M225.9,80.7L225.9,80.7c-0.4-3.8-3.2-7.2-5.5-9.8c-3.7-4.1-8-7.6-12.5-10.5
	c-3.3-2.1-6.7-4.1-10.1-5.9c4-1.3,8-2.6,11.9-3.9c5.1-1.7,10.2-3.3,15.3-5c0.2-0.1,0.3-0.1,0.5-0.2c0.1,0,0.2,0,0.2-0.1
	c0.2-0.1,0.1-0.3-0.1-0.7c0-0.1,0-0.1-0.1-0.1c-0.4-0.9-1.2-1.8-1.8-2.5c-1.1-1.2-2.4-2.6-3.8-3.4c-0.3-0.2-0.7-0.5-1.1-0.5h-0.1
	c-3.6-1.3-7.2-2.5-10.7-3.8c-8.7-3-17.2-6-25.9-9c-10.3-3.6-20.8-7.3-31.1-10.8c-9-3.1-18-6.3-27-9.4c-3-1-5.9-2.1-8.9-3.1
	c-1.3-0.5-2.8-1.2-4.2-1.5c-0.7-0.1-1.5,0.4-2.2,0.6c-2.3,0.8-4.5,1.6-6.8,2.3C93.8,6.3,85.7,9.2,77.6,12
	c-10.3,3.6-20.8,7.2-31.1,10.8c-9.4,3.3-18.7,6.5-28.1,9.8c-5.1,1.8-10.1,3.6-15.3,5.3c-0.2,0.1-0.5,0.2-0.7,0.3
	c-0.8,0.3,2.4,3.8,2.5,3.9c1.3,1.3,2.8,2.9,4.5,3.5c3.6,1.2,7.2,2.3,10.7,3.5c3,1,5.9,1.9,8.9,2.9c-2.2,1.1-4.4,2.2-6.6,3.3
	c-4.2,2.3-8.3,4.7-12,7.6c-2.8,2.1-5.6,4.6-7.2,7.8c-0.6,1.2-0.9,2.5-1,3.8l-0.1,0.1V88l7,2.3c-4.3,5.8-6.9,12.6-7,20.1
	c0,0.4,0.4,1.1,0.8,1.5c0.4,0.5,0.8,1.1,1.2,1.5c0.1,0.1,0.2,0.3,0.4,0.4c0.1,0.1,0.1,0.1,0.2,0.2c0.9,1,2,2.1,3.2,2.8
	c-3.5,7.5-5.2,15.6-5.7,23.9c-0.1,1.9-0.2,3.7-0.2,5.6c0,0.4,0.4,1.1,0.8,1.5c0.4,0.5,0.8,1.1,1.2,1.5c0.1,0.1,0.2,0.3,0.4,0.4
	c0.1,0.1,0.1,0.1,0.2,0.2c-1.7,8.3-2.3,16.8-2.5,25.1C2,177.3,2,179.7,2,182.1c0,0.4,0.4,1.1,0.8,1.5c0.4,0.5,0.8,1.1,1.2,1.5
	c0.1,0.1,0.2,0.3,0.4,0.4c0.1,0.1,0.1,0.1,0.2,0.2c1.2,1.3,2.7,2.8,4.4,3.4c3.6,1.2,7.2,2.3,10.7,3.5c8.7,2.8,17.2,5.6,25.9,8.4
	c10.3,3.4,20.8,6.7,31.1,10c9,2.9,18,5.8,27,8.8c3,1,5.9,1.9,8.9,2.9c1.3,0.4,2.8,1.2,4.2,1.4c0.7,0.1,1.5-0.3,2.2-0.5
	c2.2-0.7,4.5-1.5,6.7-2.2c8.2-2.6,16.3-5.3,24.5-7.9c10.3-3.4,20.8-6.7,31.1-10c9.4-3,18.6-6,28-9.1c5.1-1.7,10.2-3.3,15.3-5
	c0.2-0.1,0.5-0.2,0.7-0.2c0-0.1,0-0.2,0.1-0.3c0-11.4-0.5-23.3-3.2-34.6c0.8-0.3,1.6-0.5,2.4-0.8c0.2-0.1,0.5-0.2,0.7-0.2
	c0-0.1,0-0.2,0.1-0.3c0-11.5-2.1-23-7.8-33.1c2.3-0.7,4.7-1.5,7-2.3c0.2-0.1,0.5-0.2,0.7-0.2c0-0.1,0-0.2,0.1-0.3
	c0-9.8-4.7-18.3-10.9-25.5l11-3.6v-7.3L225.9,80.7L225.9,80.7z M195.2,99.3c1.7,1.1,3.4,2.2,5.1,3.4c0.1,0.1,0.2,0.1,0.2,0.2
	c0,0,0.4,0.3,0.5,0.3c0.4,0.3,0.7,0.6,1.1,0.8c0.4,0.3,0.9,0.7,1.3,1c0.1,0.1,0.3,0.2,0.4,0.4c-0.1-0.1-0.2-0.2-0.3-0.2
	c0.1,0.1,0.3,0.2,0.4,0.3c0.4,0.3,0.8,0.7,1.1,1c0.2,0.2,0.3,0.3,0.5,0.5c-0.1-0.1-0.1-0.1-0.2-0.1c0.3,0.3,0.6,0.6,0.9,0.9
	c0-0.1-0.1-0.1-0.1-0.2c0.1,0.1,0.2,0.2,0.3,0.3l0.1,0.1c0.1,0.1,0.3,0.3,0.4,0.4c0.3,0.3,0.6,0.7,0.9,1c-1.1-1.1,0.2,0.2,0.4,0.6
	c0.2,0.3,0.4,0.6,0.7,0.9c0.1,0.1,0.2,0.2,0.2,0.3c0.2,0.3,0.4,0.5,0.6,0.8c0.2,0.3,0.4,0.6,0.6,0.9c-4.3,1.4-8.6,2.8-12.9,4.2
	c-6.8-4.9-14.1-8.9-21.5-12.7l18-5.8C194.2,98.7,194.7,99,195.2,99.3 M208.8,110.6C208.7,110.5,208.7,110.5,208.8,110.6
	 M205.7,126.8c0.3,0.3,1.4,1.8,0.3,0.3c0.5,0.6,1,1.3,1.5,1.9c0.1,0.1,0.2,0.3,0.3,0.4c0.3,0.4,0.6,0.8,0.8,1.2
	c0.2,0.4,0.5,0.7,0.7,1.1c0.1,0.2,0.5,0.8,0,0c0.1,0.2,0.2,0.4,0.3,0.6c0.4,0.8,0.9,1.6,1.3,2.4c1.9,3.8,3.1,7.3,4.1,11.2
	c0.1,0.3,0.2,0.7,0.2,1c-0.9,0.3-1.9,0.6-2.8,0.9c-5,1.6-9.9,3.2-14.8,4.8c-14.1,4.6-28.2,9.1-42.3,13.6c-12.2,4-24.5,7.9-36.6,11.8
	c-2.6,0.8-5.3,1.6-7.8,2.5l0,0c-0.1-0.1-0.3-0.1-0.4-0.1c-1-0.3-2-0.7-3.1-1c-10.6-3.5-21.3-6.9-31.9-10.3
	c-14.4-4.7-28.9-9.4-43.4-14c-5.9-1.9-11.8-3.8-17.7-5.7c0.5-1.5,1-3,1.5-4.4c3.3-8.4,8.7-15.2,15.6-20.7c4.9,1.6,9.8,3.2,14.6,4.7
	c10.3,3.4,20.8,6.7,31.1,10c9,2.9,18,5.8,27,8.8c3,1,5.9,1.9,8.9,2.9c1.3,0.4,2.8,1.2,4.2,1.4c0.7,0.1,1.5-0.3,2.2-0.5
	c2.2-0.7,4.5-1.5,6.7-2.2c8.2-2.6,16.3-5.3,24.5-7.9c10.3-3.4,20.8-6.7,31.1-10c7.2-2.3,14.3-4.6,21.5-7c0.2,0.1,0.3,0.3,0.5,0.5
	c0.4,0.3,1.7,1.7,0.2,0.2C204.5,125.7,205.1,126.2,205.7,126.8c-0.3-0.3-0.4-0.4-0.5-0.5C205.3,126.5,205.5,126.7,205.7,126.8
	 M110.8,180.7C110.5,180.9,110.6,180.7,110.8,180.7 M68.9,64.7c2.7,0.9,5.4,1.7,8.1,2.6c-4.4,3-9,5.8-13.5,8.4c-4,2.2-8,4.2-12,6.3
	l-10.8-3.5c1.4-0.7,2.7-1.5,4.1-2.2C52.5,72.2,60.8,68.7,68.9,64.7L68.9,64.7 M171.6,106c4,2.1,8,4.2,11.8,6.3c1.9,1,3.7,2,5.5,3
	c0.8,0.5,1.7,0.9,2.5,1.4c0.4,0.2,0.8,0.5,1.2,0.7c0.2,0.1,0.4,0.2,0.6,0.4c0.1,0,0.1,0.1,0.2,0.1c0,0,0,0,0.1,0.1
	c0.1,0.1,0.2,0.1,0.3,0.2c-0.8,0.2-1.5,0.5-2.3,0.7c-14,4.5-28,9.1-42,13.5c-11.1,3.6-22.3,7.2-33.4,10.7c-1.4,0.4-2.7,0.9-4.1,1.3
	c-0.4,0.1-0.8,0.3-1.2,0.4c0,0-0.2,0-0.3-0.1c-0.3-0.2-0.7-0.2-1-0.3c-1.3-0.4-2.6-0.8-3.8-1.2c-10.9-3.5-21.8-7.1-32.7-10.5
	c-12.1-3.9-24.3-7.9-36.5-11.7c8-5.3,16.6-9.4,25-13.8l52.6,17l0,0l0,0l0,0l0,0l56.8-18.3C171.2,105.8,171.4,105.9,171.6,106
	 M89,71.2c1.4,0.5,2.9,0.9,4.3,1.4c-6.2,6.1-13.1,11.5-20.4,16.3l-8.3-2.7c0.9-0.5,1.9-1,2.8-1.5C74.8,80.8,82.1,76.2,89,71.2
	 M122.4,51.4c4.7,4.6,9.6,9,14.6,13c-3.9,1.2-7.7,2.5-11.5,3.7c-0.3-0.3-0.5-0.6-0.8-0.9c-0.4-0.5-0.8-1-1.1-1.5
	c-0.2-0.2-0.4-0.5-0.5-0.7c0-0.1-0.1-0.1-0.1-0.2c-0.6-0.9-1.2-1.7-1.8-2.6c-0.5-0.7-0.9-1.4-1.4-2.2c-1.2-2.5-2.1-5.9-2.1-10.9
	v-2.6C119.1,48.2,120.8,49.8,122.4,51.4 M114,63.7c0.8-1.2,1.6-2.4,2.3-3.6c2.2,3.1,4.5,6,7,8.9c-2.8,0.9-5.5,1.8-8.3,2.7
	c-1.4,0.5-2.9,0.8-4.3,1.4c0,0,0,0-0.1-0.1c-0.4-0.3-1.1-0.4-1.5-0.5c-0.5-0.1-0.9-0.3-1.3-0.4C110,69.3,112,66.5,114,63.7
	 M104.1,76.1L104.1,76.1C104.2,76.1,104.2,76.1,104.1,76.1c3.1,1,6,1.9,9,2.9c1.3,0.4,2.8,1.2,4.2,1.4c0.7,0.1,1.5-0.3,2.2-0.5
	c2.2-0.7,4.5-1.5,6.7-2.2c1.3-0.4,2.7-0.9,4-1.3c2.4,2.4,4.9,4.7,7.4,6.9c3.4,2.9,6.8,5.6,10.3,8.2L114,102.3l-29.2-9.5
	C91.9,87.8,98.3,82.4,104.1,76.1 M146.1,86.9c-0.5-0.3-0.9-0.6-1.4-1c-0.1-0.1-0.1-0.1-0.2-0.1c-0.1,0-0.1-0.1-0.2-0.1
	c-0.2-0.2-0.4-0.3-0.7-0.5c-0.9-0.7-1.8-1.4-2.7-2.1c-0.9-0.7-1.7-1.4-2.6-2.1c-0.2-0.1-0.7-0.6-0.8-0.7c-0.3-0.3-0.6-0.5-0.9-0.8
	c-0.8-0.7-1.5-1.3-2.2-2c-0.3-0.3-0.7-0.6-1-0.9c-0.1-0.1-0.3-0.3-0.4-0.4l0,0c-0.3-0.3-0.5-0.5-0.8-0.8c4.5-1.5,9.1-2.9,13.5-4.4
	c1.2,0.9,2.5,1.8,3.8,2.7c5.9,4.1,12,7.6,18.3,10.9l-16.8,5.5C149.4,89.2,147.7,88.1,146.1,86.9 M139.7,63.6
	c-0.7-0.5-1.4-1.1-2.1-1.6c-1.4-1.1-2.7-2.1-4.1-3.3c-0.3-0.2-0.6-0.5-0.9-0.7c-0.1-0.1-0.6-0.5-0.7-0.6c-0.5-0.4-1-0.9-1.5-1.3
	c-1.1-1-2.2-1.9-3.3-2.9c-0.5-0.5-1-0.9-1.5-1.4c-0.2-0.2-0.4-0.4-0.7-0.6l0,0l0,0c-1.6-1.6-3.3-3.2-4.8-4.8
	c-0.3-0.3-0.5-0.5-0.8-0.8c-0.1-0.1-0.2-0.2-0.3-0.4c-0.5-0.5-1-1.1-1.5-1.6c-0.1-0.1-0.1-0.1-0.2-0.2V33
	c12.1,9.1,24.6,17.8,37.6,25.6c-1.5,0.5-2.9,0.9-4.4,1.4C147.2,61.2,143.4,62.4,139.7,63.6 M99.9,65.4c-0.9,1.1-1.9,2.1-2.8,3.2
	c-1.1-0.4-2.2-0.7-3.3-1.1c2.8-2.2,5.5-4.4,8.2-6.8c1.8-1.6,3.6-3.2,5.3-4.9C105.1,59.3,102.5,62.5,99.9,65.4 M172.8,83.3
	c-3.1-1.5-6.1-3-9.1-4.6c-5-2.6-9.9-5.4-14.6-8.5c0.5-0.2,1-0.3,1.5-0.5c5.2-1.7,10.3-3.3,15.5-5c4.3,2.2,8.7,4.2,13,6.2
	c4,1.9,8.1,3.8,11.9,5.9c0.2,0.1,0.5,0.3,0.7,0.4L172.8,83.3z M159.6,57.2c-9.3-4.7-17.9-10.4-26.7-16.4c-5-3.4-9.9-6.9-14.6-10.3
	c-0.2-0.1-0.4-0.3-0.6-0.4c0,0,0,0-0.1,0l0,0l0,0v-9.6c12,6.1,24.1,12.2,36,18.5c2.4,1.3,4.8,2.7,7.3,3.9c2.3,1.1,4.7,2.1,7.1,3.1
	c3.9,1.6,7.9,3.2,11.7,4.9C172.9,52.9,166.3,55.1,159.6,57.2 M110.5,25.3c-5.5,4.1-10.9,8.1-16.6,12c-9.7,6.8-19.5,13.5-30,19
	c-0.6,0.3-1.2,0.6-1.8,0.9c-4.2-1.4-8.4-2.7-12.5-4.1c0.7-0.3,1.3-0.6,2-0.9c7.4-3.1,14.9-5.8,22.1-9.3c3-1.5,6-3.2,9-4.8
	c4.7-2.4,9.3-4.9,13.9-7.3c4.5-2.3,8.9-4.6,13.3-6.9c0.2-0.1,0.4-0.2,0.7-0.3V25.3z M97.8,46.8c4-2.7,8-5.5,11.8-8.4
	c-3.7,4.3-7.8,8.3-11.8,12.1c-5,4.7-10.3,9-15.8,13c-1.4-0.4-2.8-0.9-4.2-1.3c-0.9-0.3-1.9-0.6-2.8-0.9C82.9,57,90.5,51.9,97.8,46.8
	 M48.3,102.9c-6.6,3.4-13,6.8-19.2,10.8c-1.6,1.1-3.2,2.2-4.6,3.3c-1.3-0.4-2.6-0.9-4-1.3c4.9-6.6,11.3-11.6,18.3-15.9L48.3,102.9z
	 M20,120.8c-2.3,2.2-4.4,4.6-6.2,7.2c1-2.8,2.3-5.4,3.8-8C18.4,120.3,19.2,120.6,20,120.8 M202.1,60.9c1.9,1,3.8,2,5.7,3.1
	c0.2,0.1,0.5,0.3,0.7,0.4c0,0,0.3,0.2,0.4,0.2c0.3,0.2,0.6,0.4,0.9,0.6c0.9,0.5,1.8,1.1,2.6,1.7c0.8,0.5,1.5,1,2.2,1.5l0,0
	c0.1,0.1,0.2,0.1,0.3,0.2c0.3,0.2,0.7,0.5,1,0.8l-19.9,6.4c-3.1-2-6.4-3.9-9.7-5.7c-4.9-2.6-9.9-4.9-14.8-7.2
	c3.4-1.1,6.8-2.2,10.1-3.3c3.6-1.1,7.1-2.3,10.6-3.4C195.6,57.8,198.9,59.3,202.1,60.9 M126,10.9c8.2,2.9,16.3,5.7,24.5,8.6
	c10.3,3.6,20.7,7.2,31,10.7c9.4,3.3,18.6,6.5,28,9.8c0.6,0.2,1.2,0.4,1.7,0.6c-1.1,0.4-2.2,0.7-3.4,1.1c-7.4,2.4-14.6,4.7-22,7.1
	c-2.1-0.9-4.2-1.8-6.3-2.7c-7.8-3.3-15.7-6.3-23.4-9.8c-2.9-1.3-5.7-3-8.5-4.5c-4.6-2.4-9.3-4.8-13.8-7.2
	c-5.5-2.8-10.8-5.6-16.3-8.4V8l0,0c0,0,0,0,0.1,0.1c0.4,0.3,1.1,0.4,1.5,0.5C121.4,9.4,123.7,10.2,126,10.9 M18.8,43.3
	c-0.5-0.2-0.9-0.3-1.4-0.5c1-0.4,2.1-0.7,3.1-1.1c8.7-3,17.2-6,25.9-9c10.3-3.6,20.8-7.3,31.1-10.8c9-3.1,18-6.3,27-9.4
	c2-0.7,4-1.4,6-2.1v2.5h-0.1c-0.8,0.3-1.6,0.8-2.4,1.2c-3.6,1.9-7.3,3.7-10.8,5.6c-9.1,4.6-18.1,9.3-27.1,14
	C64,37,57.5,39.5,51.2,42.1c-5.2,2.1-10.3,4.3-15.4,6.6C30.1,46.9,24.4,45.1,18.8,43.3 M23.6,66c6.1-3.8,12.4-7,19-9.9
	c1.2,0.4,2.4,0.8,3.5,1.1c3.2,1,6.3,2,9.5,3.1c-9.4,4.5-19,8.6-27.8,13.9l-10.9-3.5C18.9,69,21.3,67.5,23.6,66 M26.6,95.8
	c-5.1,3.6-9.7,7.8-13.4,12.7c-1,1.3-1.8,2.6-2.6,4c-0.1,0-0.2-0.1-0.4-0.1c1.1-7.3,4.8-13.4,9.7-18.7L26.6,95.8z M218.4,179.2
	c0,0.4,0,0.9,0,1.3c0,0.2,0.1,1.1,0,1.3c-0.2,0.2,0.1,0,0,0.1c0,0-0.2,0-0.2,0.1c-0.3,0.2-0.8,0.2-1.1,0.3c-1.5,0.5-3,1-4.5,1.4
	c-12.7,4.1-25.5,8.3-38.2,12.3c-15.1,4.9-30.2,9.8-45.4,14.6c-4.9,1.6-9.8,3.2-14.6,4.7c-1.2,0.4-2.4,0.8-3.5,1.1
	c-0.1,0-0.2,0.1-0.2,0.1c-0.1,0-0.2-0.1-0.4-0.1c-1-0.4-2.1-0.7-3.2-1c-2-0.7-4.1-1.3-6.1-2c-6.1-2-12.1-3.9-18.2-5.9
	c-15.6-5.1-31.1-10-46.8-15.1c-8.8-2.9-17.6-5.7-26.4-8.6c0.1-9.9,0.7-20,3.1-29.7c2.4,0.8,4.9,1.6,7.3,2.4
	c8.7,2.8,17.2,5.6,25.9,8.4c10.3,3.4,20.8,6.7,31.1,10c9,2.9,18,5.8,27,8.8c3,1,5.9,1.9,8.9,2.9c1.3,0.4,2.8,1.2,4.2,1.4
	c0.7,0.1,1.5-0.3,2.2-0.5c2.2-0.7,4.5-1.5,6.7-2.2c8.2-2.6,16.3-5.3,24.5-7.9c10.3-3.4,20.8-6.7,31.1-10c9.4-3,18.6-6,28-9.1
	c2.4-0.8,4.8-1.5,7.2-2.3C218,163.8,218.3,171.5,218.4,179.2 M217,130.6c0.5,2.7,0.9,5.5,1.1,8.2c0.1,0.9,0.1,1.7,0.1,2.6
	c-3.1-6.6-7.6-12.4-12.7-17.5c1.4-0.5,2.8-0.9,4.2-1.3c1.5-0.5,3.1-1,4.6-1.5C215.5,124.2,216.4,127.3,217,130.6 M212.7,92.5
	c0.1,0.1,0.4,0.6,0.6,0.8c0.3,0.4,0.5,0.8,0.7,1.2c0.1,0.2,0.2,0.3,0.3,0.5c0.1,0.1,0.2,0.4,0.3,0.5c0.3,0.5,0.5,1,0.8,1.5
	c1.8,3.6,2.8,7.5,3,11.4c0,0.6,0.3,1.5-0.1,1.8c-0.2,0.1-0.6,0.2-0.9,0.3c-1.6,0.5-3.1,1-4.7,1.5c-4.4-5.6-9.8-10.4-15.5-14.6
	l15.3-5C212.6,92.3,212.7,92.4,212.7,92.5"/>
<g id="XMLID_237_">
	<path id="XMLID_264_" class="st0" d="M317.8,169.9V129h7.4v59.3h-7.4l-35-40.6v40.6h-7.4v-49.1l-4.3-5l10-7.1L317.8,169.9z"/>
	<path id="XMLID_261_" class="st0" d="M349.3,145.9v22.4c0,4.8,1,8.5,2.9,11s4.6,4,8,4c3.2,0,6.2-1,8.8-3c-2,2.9-4.4,5.1-7.2,6.7
		c-2.8,1.6-5.8,2.4-8.8,2.4c-4.1,0-7.5-1.4-10.3-4.1c-2.8-2.8-4.2-6.6-4.2-11.3v-28.1H349.3z M368.9,188.2v-42.3h10.8v42.3H368.9z"
		/>
	<path id="XMLID_257_" class="st0" d="M388.7,183.8l9.1-6.4c2.1,2.4,4.9,4.3,8.4,5.4c3.5,1.2,6.6,1.3,9.2,0.4c-3,3.9-7.3,5.9-12.7,6
		C396.9,189.4,392.3,187.6,388.7,183.8z M390.1,159.4c0,1.4,0.4,2.7,1.1,4c0.8,1.2,1.6,2.2,2.5,2.9c0.9,0.7,2.3,1.5,4.2,2.3
		c1.9,0.8,3.3,1.4,4.3,1.7c1,0.3,2.6,0.8,4.8,1.5c6.4,2,9.7,4.3,10,7c0.2,1.7-0.3,3.2-1.6,4.5c0.5-0.1,1.2-0.3,2.1-0.6
		c0.9-0.4,2-0.9,3.3-1.7c1.3-0.7,2.3-1.8,3.2-3.3c0.9-1.4,1.2-3.1,1.2-4.9c-0.1-1.1-0.3-2.2-0.8-3.1c-0.5-0.9-1.3-1.8-2.3-2.6
		c-1-0.8-2-1.4-2.8-2c-0.8-0.5-2.1-1.1-4-1.7c-1.8-0.6-3.1-1.1-3.8-1.3c-0.7-0.3-2.1-0.7-4.1-1.2c-6.4-2-9.6-4.5-9.6-7.5
		c0-1.1,0.3-2.1,0.8-2.9c-2,0-4.1,1.3-6.5,3.8C390.7,156,390.1,157.6,390.1,159.4z M422.5,149.1l-9,6.4c-1.4-2.1-3.8-3.6-7.2-4.6
		c-3.3-1-6-1.1-8-0.3c2.5-3.6,6.4-5.6,11.6-6C415.3,144.2,419.5,145.7,422.5,149.1z"/>
	<path id="XMLID_254_" class="st0" d="M444.8,145.9v22.4c0,4.8,1,8.5,2.9,11c1.9,2.6,4.6,4,8,4c3.2,0,6.2-1,8.8-3
		c-2,2.9-4.4,5.1-7.2,6.7c-2.8,1.6-5.8,2.4-8.8,2.4c-4.1,0-7.5-1.4-10.3-4.1c-2.8-2.8-4.2-6.6-4.2-11.3v-28.1H444.8z M464.5,188.2
		v-42.3h10.8v42.3H464.5z"/>
	<path id="XMLID_251_" class="st0" d="M498.5,188.3h-10.8v-65.3h10.8V188.3z M527.4,145.9l-16.7,17.6l17.3,19.7l-9.3,6.6l-19.6-22.9
		l18.4-21L527.4,145.9L527.4,145.9z"/>
	<path id="XMLID_249_" class="st0" d="M600.7,153v-24.1h11.6v59.3h-11.6v-28.1h-27.8v28.1h-11.5v-59.3h11.5v31l10-7.1L600.7,153
		L600.7,153L600.7,153z"/>
	<path id="XMLID_246_" class="st0" d="M631.1,173c0,2.8,1,5.2,2.9,7c1.9,1.8,4.3,2.8,7.2,2.8c2.2,0,4.2-0.5,6-1.6
		c-1.7,2.5-3.8,4.4-6.3,5.8c-2.5,1.4-5.1,2-7.8,2c-3.2,0-5.9-1-8.1-3c-2-2-3.1-4.4-3.1-7.1s1-5.2,3.1-7.3c2-2.2,4.7-3.5,7.9-4.2
		C631.7,169.2,631.1,171.1,631.1,173z M641.6,144.5c4.5,0,8.4,1.4,11.5,4.3c3.1,2.8,4.7,6.6,4.7,11.4v28.1H647v-20.8h-14.2l9.3-6.5
		h4.7c-0.7-3.4-2.1-6-4.3-7.9c-2.2-1.9-4.8-2.8-8-2.8c-3.3,0-6.6,1-10,3.1c2.2-2.8,4.8-5,7.8-6.6
		C635.3,145.3,638.4,144.5,641.6,144.5z"/>
	<path id="XMLID_242_" class="st0" d="M657.4,205.8l10-7.1c1.2,2.1,2.9,3.6,4.8,4.4c2,0.9,4,0.8,6.1-0.1c-2.3,4.1-5.7,6.4-10.1,7.1
		C663.6,210.8,660,209.4,657.4,205.8z M692.7,129.9l-9.4,9.1l-9.4-8.3l9.4-8.9L692.7,129.9z M689.2,195.6l-10.8,7.6v-57.2h10.8
		V195.6z"/>
	<path id="XMLID_238_" class="st0" d="M686.9,205.8l10-7.1c1.2,2.1,2.9,3.6,4.8,4.4c2,0.9,4,0.8,6.1-0.1c-2.3,4.1-5.7,6.4-10.1,7.1
		C692.9,210.8,689.5,209.4,686.9,205.8z M722.1,129.9l-9.4,9.1l-9.4-8.3l9.4-8.9L722.1,129.9z M718.5,195.6l-10.8,7.6v-57.2h10.8
		V195.6z"/>
</g>
</svg>
